ISO-10303-21;
HEADER;
FILE_DESCRIPTION(('Open CASCADE Model'),'2;1');
FILE_NAME('Open CASCADE Shape Model','2026-05-09T21:01:43',('Author'),(
    'Open CASCADE'),'Open CASCADE STEP processor 7.8','build123d',
  'Unknown');
FILE_SCHEMA(('AUTOMOTIVE_DESIGN { 1 0 10303 214 1 1 1 1 }'));
ENDSEC;
DATA;
#1 = APPLICATION_PROTOCOL_DEFINITION('international standard',
  'automotive_design',2000,#2);
#2 = APPLICATION_CONTEXT(
  'core data for automotive mechanical design processes');
#3 = SHAPE_DEFINITION_REPRESENTATION(#4,#10);
#4 = PRODUCT_DEFINITION_SHAPE('','',#5);
#5 = PRODUCT_DEFINITION('design','',#6,#9);
#6 = PRODUCT_DEFINITION_FORMATION('','',#7);
#7 = PRODUCT('COMPOUND','COMPOUND','',(#8));
#8 = PRODUCT_CONTEXT('',#2,'mechanical');
#9 = PRODUCT_DEFINITION_CONTEXT('part definition',#2,'design');
#10 = ADVANCED_BREP_SHAPE_REPRESENTATION('',(#11,#15),#860);
#11 = AXIS2_PLACEMENT_3D('',#12,#13,#14);
#12 = CARTESIAN_POINT('',(0.,0.,0.));
#13 = DIRECTION('',(0.,0.,1.));
#14 = DIRECTION('',(1.,0.,-0.));
#15 = MANIFOLD_SOLID_BREP('',#16);
#16 = CLOSED_SHELL('',(#17,#166,#304,#468,#515,#590,#640,#714,#818,#828,
    #853));
#17 = ADVANCED_FACE('',(#18,#132),#32,.F.);
#18 = FACE_BOUND('',#19,.F.);
#19 = EDGE_LOOP('',(#20,#53,#79,#105));
#20 = ORIENTED_EDGE('',*,*,#21,.T.);
#21 = EDGE_CURVE('',#22,#24,#26,.T.);
#22 = VERTEX_POINT('',#23);
#23 = CARTESIAN_POINT('',(-1.,2.615339366124,0.));
#24 = VERTEX_POINT('',#25);
#25 = CARTESIAN_POINT('',(-1.,3.75,0.));
#26 = SURFACE_CURVE('',#27,(#31,#42),.PCURVE_S1.);
#27 = LINE('',#28,#29);
#28 = CARTESIAN_POINT('',(-1.,1.225,0.));
#29 = VECTOR('',#30,1.);
#30 = DIRECTION('',(0.,1.,0.));
#31 = PCURVE('',#32,#37);
#32 = PLANE('',#33);
#33 = AXIS2_PLACEMENT_3D('',#34,#35,#36);
#34 = CARTESIAN_POINT('',(3.161472138739E-02,2.744713450752E-16,0.));
#35 = DIRECTION('',(0.,0.,1.));
#36 = DIRECTION('',(1.,0.,0.));
#37 = DEFINITIONAL_REPRESENTATION('',(#38),#41);
#38 = B_SPLINE_CURVE_WITH_KNOTS('',1,(#39,#40),.UNSPECIFIED.,.F.,.F.,(2,
    2),(1.225,2.525),.PIECEWISE_BEZIER_KNOTS.);
#39 = CARTESIAN_POINT('',(-1.031614721387,2.45));
#40 = CARTESIAN_POINT('',(-1.031614721387,3.75));
#41 = ( GEOMETRIC_REPRESENTATION_CONTEXT(2) 
PARAMETRIC_REPRESENTATION_CONTEXT() REPRESENTATION_CONTEXT('2D SPACE',''
  ) );
#42 = PCURVE('',#43,#48);
#43 = PLANE('',#44);
#44 = AXIS2_PLACEMENT_3D('',#45,#46,#47);
#45 = CARTESIAN_POINT('',(-1.,2.45,-1.E-01));
#46 = DIRECTION('',(1.,0.,0.));
#47 = DIRECTION('',(0.,0.,1.));
#48 = DEFINITIONAL_REPRESENTATION('',(#49),#52);
#49 = B_SPLINE_CURVE_WITH_KNOTS('',1,(#50,#51),.UNSPECIFIED.,.F.,.F.,(2,
    2),(1.225,2.525),.PIECEWISE_BEZIER_KNOTS.);
#50 = CARTESIAN_POINT('',(1.E-01,0.));
#51 = CARTESIAN_POINT('',(1.E-01,-1.3));
#52 = ( GEOMETRIC_REPRESENTATION_CONTEXT(2) 
PARAMETRIC_REPRESENTATION_CONTEXT() REPRESENTATION_CONTEXT('2D SPACE',''
  ) );
#53 = ORIENTED_EDGE('',*,*,#54,.F.);
#54 = EDGE_CURVE('',#55,#24,#57,.T.);
#55 = VERTEX_POINT('',#56);
#56 = CARTESIAN_POINT('',(1.,3.75,0.));
#57 = SURFACE_CURVE('',#58,(#62,#68),.PCURVE_S1.);
#58 = LINE('',#59,#60);
#59 = CARTESIAN_POINT('',(-0.484192639306,3.75,0.));
#60 = VECTOR('',#61,1.);
#61 = DIRECTION('',(-1.,0.,0.));
#62 = PCURVE('',#32,#63);
#63 = DEFINITIONAL_REPRESENTATION('',(#64),#67);
#64 = B_SPLINE_CURVE_WITH_KNOTS('',1,(#65,#66),.UNSPECIFIED.,.F.,.F.,(2,
    2),(-1.484192639306,0.515807360694),.PIECEWISE_BEZIER_KNOTS.);
#65 = CARTESIAN_POINT('',(0.968385278613,3.75));
#66 = CARTESIAN_POINT('',(-1.031614721387,3.75));
#67 = ( GEOMETRIC_REPRESENTATION_CONTEXT(2) 
PARAMETRIC_REPRESENTATION_CONTEXT() REPRESENTATION_CONTEXT('2D SPACE',''
  ) );
#68 = PCURVE('',#69,#74);
#69 = PLANE('',#70);
#70 = AXIS2_PLACEMENT_3D('',#71,#72,#73);
#71 = CARTESIAN_POINT('',(-1.,3.75,-1.E-01));
#72 = DIRECTION('',(0.,1.,0.));
#73 = DIRECTION('',(0.,0.,1.));
#74 = DEFINITIONAL_REPRESENTATION('',(#75),#78);
#75 = B_SPLINE_CURVE_WITH_KNOTS('',1,(#76,#77),.UNSPECIFIED.,.F.,.F.,(2,
    2),(-1.484192639306,0.515807360694),.PIECEWISE_BEZIER_KNOTS.);
#76 = CARTESIAN_POINT('',(1.E-01,2.));
#77 = CARTESIAN_POINT('',(1.E-01,0.));
#78 = ( GEOMETRIC_REPRESENTATION_CONTEXT(2) 
PARAMETRIC_REPRESENTATION_CONTEXT() REPRESENTATION_CONTEXT('2D SPACE',''
  ) );
#79 = ORIENTED_EDGE('',*,*,#80,.F.);
#80 = EDGE_CURVE('',#81,#55,#83,.T.);
#81 = VERTEX_POINT('',#82);
#82 = CARTESIAN_POINT('',(1.,2.615339366124,0.));
#83 = SURFACE_CURVE('',#84,(#88,#94),.PCURVE_S1.);
#84 = LINE('',#85,#86);
#85 = CARTESIAN_POINT('',(1.,1.225,0.));
#86 = VECTOR('',#87,1.);
#87 = DIRECTION('',(0.,1.,0.));
#88 = PCURVE('',#32,#89);
#89 = DEFINITIONAL_REPRESENTATION('',(#90),#93);
#90 = B_SPLINE_CURVE_WITH_KNOTS('',1,(#91,#92),.UNSPECIFIED.,.F.,.F.,(2,
    2),(1.225,2.525),.PIECEWISE_BEZIER_KNOTS.);
#91 = CARTESIAN_POINT('',(0.968385278613,2.45));
#92 = CARTESIAN_POINT('',(0.968385278613,3.75));
#93 = ( GEOMETRIC_REPRESENTATION_CONTEXT(2) 
PARAMETRIC_REPRESENTATION_CONTEXT() REPRESENTATION_CONTEXT('2D SPACE',''
  ) );
#94 = PCURVE('',#95,#100);
#95 = PLANE('',#96);
#96 = AXIS2_PLACEMENT_3D('',#97,#98,#99);
#97 = CARTESIAN_POINT('',(1.,2.45,-1.E-01));
#98 = DIRECTION('',(1.,0.,0.));
#99 = DIRECTION('',(0.,0.,1.));
#100 = DEFINITIONAL_REPRESENTATION('',(#101),#104);
#101 = B_SPLINE_CURVE_WITH_KNOTS('',1,(#102,#103),.UNSPECIFIED.,.F.,.F.,
  (2,2),(1.225,2.525),.PIECEWISE_BEZIER_KNOTS.);
#102 = CARTESIAN_POINT('',(1.E-01,0.));
#103 = CARTESIAN_POINT('',(1.E-01,-1.3));
#104 = ( GEOMETRIC_REPRESENTATION_CONTEXT(2) 
PARAMETRIC_REPRESENTATION_CONTEXT() REPRESENTATION_CONTEXT('2D SPACE',''
  ) );
#105 = ORIENTED_EDGE('',*,*,#106,.F.);
#106 = EDGE_CURVE('',#22,#81,#107,.T.);
#107 = SURFACE_CURVE('',#108,(#113,#120),.PCURVE_S1.);
#108 = CIRCLE('',#109,2.8);
#109 = AXIS2_PLACEMENT_3D('',#110,#111,#112);
#110 = CARTESIAN_POINT('',(0.,0.,0.));
#111 = DIRECTION('',(0.,0.,1.));
#112 = DIRECTION('',(-0.198997487421,0.98,0.));
#113 = PCURVE('',#32,#114);
#114 = DEFINITIONAL_REPRESENTATION('',(#115),#119);
#115 = CIRCLE('',#116,2.8);
#116 = AXIS2_PLACEMENT_2D('',#117,#118);
#117 = CARTESIAN_POINT('',(-3.161472138739E-02,-2.744713450752E-16));
#118 = DIRECTION('',(-0.198997487421,0.98));
#119 = ( GEOMETRIC_REPRESENTATION_CONTEXT(2) 
PARAMETRIC_REPRESENTATION_CONTEXT() REPRESENTATION_CONTEXT('2D SPACE',''
  ) );
#120 = PCURVE('',#121,#126);
#121 = CONICAL_SURFACE('',#122,2.5,0.785398163397);
#122 = AXIS2_PLACEMENT_3D('',#123,#124,#125);
#123 = CARTESIAN_POINT('',(0.,0.,0.3));
#124 = DIRECTION('',(-0.,-0.,-1.));
#125 = DIRECTION('',(-0.198997487421,0.98,0.));
#126 = DEFINITIONAL_REPRESENTATION('',(#127),#131);
#127 = LINE('',#128,#129);
#128 = CARTESIAN_POINT('',(0.,0.3));
#129 = VECTOR('',#130,1.);
#130 = DIRECTION('',(-1.,-0.));
#131 = ( GEOMETRIC_REPRESENTATION_CONTEXT(2) 
PARAMETRIC_REPRESENTATION_CONTEXT() REPRESENTATION_CONTEXT('2D SPACE',''
  ) );
#132 = FACE_BOUND('',#133,.F.);
#133 = EDGE_LOOP('',(#134));
#134 = ORIENTED_EDGE('',*,*,#135,.T.);
#135 = EDGE_CURVE('',#136,#136,#138,.T.);
#136 = VERTEX_POINT('',#137);
#137 = CARTESIAN_POINT('',(13.5,0.,0.));
#138 = SURFACE_CURVE('',#139,(#144,#151),.PCURVE_S1.);
#139 = ELLIPSE('',#140,13.5,13.25);
#140 = AXIS2_PLACEMENT_3D('',#141,#142,#143);
#141 = CARTESIAN_POINT('',(0.,0.,0.));
#142 = DIRECTION('',(0.,0.,1.));
#143 = DIRECTION('',(1.,0.,0.));
#144 = PCURVE('',#32,#145);
#145 = DEFINITIONAL_REPRESENTATION('',(#146),#150);
#146 = ELLIPSE('',#147,13.5,13.25);
#147 = AXIS2_PLACEMENT_2D('',#148,#149);
#148 = CARTESIAN_POINT('',(-3.161472138739E-02,-2.744713450752E-16));
#149 = DIRECTION('',(1.,0.));
#150 = ( GEOMETRIC_REPRESENTATION_CONTEXT(2) 
PARAMETRIC_REPRESENTATION_CONTEXT() REPRESENTATION_CONTEXT('2D SPACE',''
  ) );
#151 = PCURVE('',#152,#160);
#152 = SURFACE_OF_LINEAR_EXTRUSION('',#153,#158);
#153 = ELLIPSE('',#154,13.5,13.25);
#154 = AXIS2_PLACEMENT_3D('',#155,#156,#157);
#155 = CARTESIAN_POINT('',(0.,0.,0.));
#156 = DIRECTION('',(0.,0.,1.));
#157 = DIRECTION('',(1.,0.,0.));
#158 = VECTOR('',#159,1.);
#159 = DIRECTION('',(-0.,-0.,-1.));
#160 = DEFINITIONAL_REPRESENTATION('',(#161),#165);
#161 = LINE('',#162,#163);
#162 = CARTESIAN_POINT('',(0.,0.));
#163 = VECTOR('',#164,1.);
#164 = DIRECTION('',(1.,0.));
#165 = ( GEOMETRIC_REPRESENTATION_CONTEXT(2) 
PARAMETRIC_REPRESENTATION_CONTEXT() REPRESENTATION_CONTEXT('2D SPACE',''
  ) );
#166 = ADVANCED_FACE('',(#167),#43,.T.);
#167 = FACE_BOUND('',#168,.T.);
#168 = EDGE_LOOP('',(#169,#199,#224,#225,#248,#274));
#169 = ORIENTED_EDGE('',*,*,#170,.F.);
#170 = EDGE_CURVE('',#171,#173,#175,.T.);
#171 = VERTEX_POINT('',#172);
#172 = CARTESIAN_POINT('',(-1.,2.45,0.15377627552));
#173 = VERTEX_POINT('',#174);
#174 = CARTESIAN_POINT('',(-1.,2.45,13.84622372448));
#175 = SURFACE_CURVE('',#176,(#180,#187),.PCURVE_S1.);
#176 = LINE('',#177,#178);
#177 = CARTESIAN_POINT('',(-1.,2.45,-1.E-01));
#178 = VECTOR('',#179,1.);
#179 = DIRECTION('',(0.,0.,1.));
#180 = PCURVE('',#43,#181);
#181 = DEFINITIONAL_REPRESENTATION('',(#182),#186);
#182 = LINE('',#183,#184);
#183 = CARTESIAN_POINT('',(0.,0.));
#184 = VECTOR('',#185,1.);
#185 = DIRECTION('',(1.,0.));
#186 = ( GEOMETRIC_REPRESENTATION_CONTEXT(2) 
PARAMETRIC_REPRESENTATION_CONTEXT() REPRESENTATION_CONTEXT('2D SPACE',''
  ) );
#187 = PCURVE('',#188,#193);
#188 = PLANE('',#189);
#189 = AXIS2_PLACEMENT_3D('',#190,#191,#192);
#190 = CARTESIAN_POINT('',(-1.,2.45,-1.E-01));
#191 = DIRECTION('',(0.,1.,0.));
#192 = DIRECTION('',(0.,0.,1.));
#193 = DEFINITIONAL_REPRESENTATION('',(#194),#198);
#194 = LINE('',#195,#196);
#195 = CARTESIAN_POINT('',(0.,0.));
#196 = VECTOR('',#197,1.);
#197 = DIRECTION('',(1.,0.));
#198 = ( GEOMETRIC_REPRESENTATION_CONTEXT(2) 
PARAMETRIC_REPRESENTATION_CONTEXT() REPRESENTATION_CONTEXT('2D SPACE',''
  ) );
#199 = ORIENTED_EDGE('',*,*,#200,.F.);
#200 = EDGE_CURVE('',#22,#171,#201,.T.);
#201 = SURFACE_CURVE('',#202,(#207,#214),.PCURVE_S1.);
#202 = HYPERBOLA('',#203,1.,1.);
#203 = AXIS2_PLACEMENT_3D('',#204,#205,#206);
#204 = CARTESIAN_POINT('',(-1.,0.,2.8));
#205 = DIRECTION('',(-1.,-0.,-0.));
#206 = DIRECTION('',(0.,0.,-1.));
#207 = PCURVE('',#43,#208);
#208 = DEFINITIONAL_REPRESENTATION('',(#209),#213);
#209 = ( BOUNDED_CURVE() B_SPLINE_CURVE(2,(#210,#211,#212),
.UNSPECIFIED.,.F.,.F.) B_SPLINE_CURVE_WITH_KNOTS((3,3),(-1.68923554998,
-1.628499819284),.PIECEWISE_BEZIER_KNOTS.) CURVE() 
GEOMETRIC_REPRESENTATION_ITEM() RATIONAL_B_SPLINE_CURVE((1.,
1.00046113906,1.)) REPRESENTATION_ITEM('') );
#210 = CARTESIAN_POINT('',(1.E-01,-0.165339366124));
#211 = CARTESIAN_POINT('',(0.179397868114,-8.033547194587E-02));
#212 = CARTESIAN_POINT('',(0.25377627552,-1.33226762955E-15));
#213 = ( GEOMETRIC_REPRESENTATION_CONTEXT(2) 
PARAMETRIC_REPRESENTATION_CONTEXT() REPRESENTATION_CONTEXT('2D SPACE',''
  ) );
#214 = PCURVE('',#121,#215);
#215 = DEFINITIONAL_REPRESENTATION('',(#216),#223);
#216 = B_SPLINE_CURVE_WITH_KNOTS('',5,(#217,#218,#219,#220,#221,#222),
  .UNSPECIFIED.,.F.,.F.,(6,6),(-1.68923554998,-1.628499819284),
  .PIECEWISE_BEZIER_KNOTS.);
#217 = CARTESIAN_POINT('',(-0.164872378967,0.3));
#218 = CARTESIAN_POINT('',(-0.169210645446,0.268231090516));
#219 = CARTESIAN_POINT('',(-0.173610439645,0.236978617023));
#220 = CARTESIAN_POINT('',(-0.178072754812,0.2062328139));
#221 = CARTESIAN_POINT('',(-0.182598593388,0.175984232544));
#222 = CARTESIAN_POINT('',(-0.187188963441,0.146223724504));
#223 = ( GEOMETRIC_REPRESENTATION_CONTEXT(2) 
PARAMETRIC_REPRESENTATION_CONTEXT() REPRESENTATION_CONTEXT('2D SPACE',''
  ) );
#224 = ORIENTED_EDGE('',*,*,#21,.T.);
#225 = ORIENTED_EDGE('',*,*,#226,.T.);
#226 = EDGE_CURVE('',#24,#227,#229,.T.);
#227 = VERTEX_POINT('',#228);
#228 = CARTESIAN_POINT('',(-1.,3.75,14.));
#229 = SURFACE_CURVE('',#230,(#234,#241),.PCURVE_S1.);
#230 = LINE('',#231,#232);
#231 = CARTESIAN_POINT('',(-1.,3.75,-1.E-01));
#232 = VECTOR('',#233,1.);
#233 = DIRECTION('',(0.,0.,1.));
#234 = PCURVE('',#43,#235);
#235 = DEFINITIONAL_REPRESENTATION('',(#236),#240);
#236 = LINE('',#237,#238);
#237 = CARTESIAN_POINT('',(0.,-1.3));
#238 = VECTOR('',#239,1.);
#239 = DIRECTION('',(1.,0.));
#240 = ( GEOMETRIC_REPRESENTATION_CONTEXT(2) 
PARAMETRIC_REPRESENTATION_CONTEXT() REPRESENTATION_CONTEXT('2D SPACE',''
  ) );
#241 = PCURVE('',#69,#242);
#242 = DEFINITIONAL_REPRESENTATION('',(#243),#247);
#243 = LINE('',#244,#245);
#244 = CARTESIAN_POINT('',(0.,0.));
#245 = VECTOR('',#246,1.);
#246 = DIRECTION('',(1.,0.));
#247 = ( GEOMETRIC_REPRESENTATION_CONTEXT(2) 
PARAMETRIC_REPRESENTATION_CONTEXT() REPRESENTATION_CONTEXT('2D SPACE',''
  ) );
#248 = ORIENTED_EDGE('',*,*,#249,.F.);
#249 = EDGE_CURVE('',#250,#227,#252,.T.);
#250 = VERTEX_POINT('',#251);
#251 = CARTESIAN_POINT('',(-1.,2.615339366124,14.));
#252 = SURFACE_CURVE('',#253,(#257,#263),.PCURVE_S1.);
#253 = LINE('',#254,#255);
#254 = CARTESIAN_POINT('',(-1.,1.225,14.));
#255 = VECTOR('',#256,1.);
#256 = DIRECTION('',(0.,1.,0.));
#257 = PCURVE('',#43,#258);
#258 = DEFINITIONAL_REPRESENTATION('',(#259),#262);
#259 = B_SPLINE_CURVE_WITH_KNOTS('',1,(#260,#261),.UNSPECIFIED.,.F.,.F.,
  (2,2),(1.225,2.525),.PIECEWISE_BEZIER_KNOTS.);
#260 = CARTESIAN_POINT('',(14.1,0.));
#261 = CARTESIAN_POINT('',(14.1,-1.3));
#262 = ( GEOMETRIC_REPRESENTATION_CONTEXT(2) 
PARAMETRIC_REPRESENTATION_CONTEXT() REPRESENTATION_CONTEXT('2D SPACE',''
  ) );
#263 = PCURVE('',#264,#269);
#264 = PLANE('',#265);
#265 = AXIS2_PLACEMENT_3D('',#266,#267,#268);
#266 = CARTESIAN_POINT('',(3.161472138739E-02,2.744713450752E-16,14.));
#267 = DIRECTION('',(0.,0.,1.));
#268 = DIRECTION('',(1.,0.,0.));
#269 = DEFINITIONAL_REPRESENTATION('',(#270),#273);
#270 = B_SPLINE_CURVE_WITH_KNOTS('',1,(#271,#272),.UNSPECIFIED.,.F.,.F.,
  (2,2),(1.225,2.525),.PIECEWISE_BEZIER_KNOTS.);
#271 = CARTESIAN_POINT('',(-1.031614721387,2.45));
#272 = CARTESIAN_POINT('',(-1.031614721387,3.75));
#273 = ( GEOMETRIC_REPRESENTATION_CONTEXT(2) 
PARAMETRIC_REPRESENTATION_CONTEXT() REPRESENTATION_CONTEXT('2D SPACE',''
  ) );
#274 = ORIENTED_EDGE('',*,*,#275,.T.);
#275 = EDGE_CURVE('',#250,#173,#276,.T.);
#276 = SURFACE_CURVE('',#277,(#282,#289),.PCURVE_S1.);
#277 = HYPERBOLA('',#278,1.,1.);
#278 = AXIS2_PLACEMENT_3D('',#279,#280,#281);
#279 = CARTESIAN_POINT('',(-1.,0.,11.2));
#280 = DIRECTION('',(1.,0.,0.));
#281 = DIRECTION('',(0.,-0.,1.));
#282 = PCURVE('',#43,#283);
#283 = DEFINITIONAL_REPRESENTATION('',(#284),#288);
#284 = ( BOUNDED_CURVE() B_SPLINE_CURVE(2,(#285,#286,#287),
.UNSPECIFIED.,.F.,.F.) B_SPLINE_CURVE_WITH_KNOTS((3,3),(-1.68923554998,
-1.628499819284),.PIECEWISE_BEZIER_KNOTS.) CURVE() 
GEOMETRIC_REPRESENTATION_ITEM() RATIONAL_B_SPLINE_CURVE((1.,
1.00046113906,1.)) REPRESENTATION_ITEM('') );
#285 = CARTESIAN_POINT('',(14.1,-0.165339366124));
#286 = CARTESIAN_POINT('',(14.020602131886,-8.033547194586E-02));
#287 = CARTESIAN_POINT('',(13.94622372448,3.10862446895E-15));
#288 = ( GEOMETRIC_REPRESENTATION_CONTEXT(2) 
PARAMETRIC_REPRESENTATION_CONTEXT() REPRESENTATION_CONTEXT('2D SPACE',''
  ) );
#289 = PCURVE('',#290,#295);
#290 = CONICAL_SURFACE('',#291,2.5,0.785398163397);
#291 = AXIS2_PLACEMENT_3D('',#292,#293,#294);
#292 = CARTESIAN_POINT('',(0.,0.,13.7));
#293 = DIRECTION('',(0.,0.,1.));
#294 = DIRECTION('',(0.198997487421,0.98,-0.));
#295 = DEFINITIONAL_REPRESENTATION('',(#296),#303);
#296 = B_SPLINE_CURVE_WITH_KNOTS('',5,(#297,#298,#299,#300,#301,#302),
  .UNSPECIFIED.,.F.,.F.,(6,6),(-1.68923554998,-1.628499819284),
  .PIECEWISE_BEZIER_KNOTS.);
#297 = CARTESIAN_POINT('',(-5.717643243566,0.3));
#298 = CARTESIAN_POINT('',(-5.713304977088,0.268231090516));
#299 = CARTESIAN_POINT('',(-5.708905182889,0.236978617023));
#300 = CARTESIAN_POINT('',(-5.704442867721,0.2062328139));
#301 = CARTESIAN_POINT('',(-5.699917029145,0.175984232544));
#302 = CARTESIAN_POINT('',(-5.695326659092,0.146223724504));
#303 = ( GEOMETRIC_REPRESENTATION_CONTEXT(2) 
PARAMETRIC_REPRESENTATION_CONTEXT() REPRESENTATION_CONTEXT('2D SPACE',''
  ) );
#304 = ADVANCED_FACE('',(#305),#121,.F.);
#305 = FACE_BOUND('',#306,.F.);
#306 = EDGE_LOOP('',(#307,#308,#309,#336,#391,#420));
#307 = ORIENTED_EDGE('',*,*,#200,.F.);
#308 = ORIENTED_EDGE('',*,*,#106,.T.);
#309 = ORIENTED_EDGE('',*,*,#310,.T.);
#310 = EDGE_CURVE('',#81,#311,#313,.T.);
#311 = VERTEX_POINT('',#312);
#312 = CARTESIAN_POINT('',(1.,2.45,0.15377627552));
#313 = SURFACE_CURVE('',#314,(#319,#329),.PCURVE_S1.);
#314 = HYPERBOLA('',#315,1.,1.);
#315 = AXIS2_PLACEMENT_3D('',#316,#317,#318);
#316 = CARTESIAN_POINT('',(1.,0.,2.8));
#317 = DIRECTION('',(-1.,-0.,-0.));
#318 = DIRECTION('',(0.,0.,-1.));
#319 = PCURVE('',#121,#320);
#320 = DEFINITIONAL_REPRESENTATION('',(#321),#328);
#321 = B_SPLINE_CURVE_WITH_KNOTS('',5,(#322,#323,#324,#325,#326,#327),
  .UNSPECIFIED.,.F.,.F.,(6,6),(-1.68923554998,-1.628499819284),
  .PIECEWISE_BEZIER_KNOTS.);
#322 = CARTESIAN_POINT('',(-5.717643243566,0.3));
#323 = CARTESIAN_POINT('',(-5.713304977088,0.268231090516));
#324 = CARTESIAN_POINT('',(-5.708905182889,0.236978617023));
#325 = CARTESIAN_POINT('',(-5.704442867721,0.2062328139));
#326 = CARTESIAN_POINT('',(-5.699917029145,0.175984232544));
#327 = CARTESIAN_POINT('',(-5.695326659092,0.146223724504));
#328 = ( GEOMETRIC_REPRESENTATION_CONTEXT(2) 
PARAMETRIC_REPRESENTATION_CONTEXT() REPRESENTATION_CONTEXT('2D SPACE',''
  ) );
#329 = PCURVE('',#95,#330);
#330 = DEFINITIONAL_REPRESENTATION('',(#331),#335);
#331 = ( BOUNDED_CURVE() B_SPLINE_CURVE(2,(#332,#333,#334),
.UNSPECIFIED.,.F.,.F.) B_SPLINE_CURVE_WITH_KNOTS((3,3),(-1.68923554998,
-1.628499819284),.PIECEWISE_BEZIER_KNOTS.) CURVE() 
GEOMETRIC_REPRESENTATION_ITEM() RATIONAL_B_SPLINE_CURVE((1.,
1.00046113906,1.)) REPRESENTATION_ITEM('') );
#332 = CARTESIAN_POINT('',(0.1,-0.165339366124));
#333 = CARTESIAN_POINT('',(0.179397868114,-8.033547194586E-02));
#334 = CARTESIAN_POINT('',(0.25377627552,-1.33226762955E-15));
#335 = ( GEOMETRIC_REPRESENTATION_CONTEXT(2) 
PARAMETRIC_REPRESENTATION_CONTEXT() REPRESENTATION_CONTEXT('2D SPACE',''
  ) );
#336 = ORIENTED_EDGE('',*,*,#337,.T.);
#337 = EDGE_CURVE('',#311,#338,#340,.T.);
#338 = VERTEX_POINT('',#339);
#339 = CARTESIAN_POINT('',(0.497493718553,2.45,0.3));
#340 = SURFACE_CURVE('',#341,(#346,#379),.PCURVE_S1.);
#341 = HYPERBOLA('',#342,2.45,2.45);
#342 = AXIS2_PLACEMENT_3D('',#343,#344,#345);
#343 = CARTESIAN_POINT('',(0.,2.45,2.8));
#344 = DIRECTION('',(0.,1.,0.));
#345 = DIRECTION('',(0.,0.,-1.));
#346 = PCURVE('',#121,#347);
#347 = DEFINITIONAL_REPRESENTATION('',(#348),#378);
#348 = B_SPLINE_CURVE_WITH_KNOTS('',10,(#349,#350,#351,#352,#353,#354,
    #355,#356,#357,#358,#359,#360,#361,#362,#363,#364,#365,#366,#367,
    #368,#369,#370,#371,#372,#373,#374,#375,#376,#377),.UNSPECIFIED.,.F.
  ,.F.,(11,9,9,11),(-0.397604011441,-0.34862513053,-0.29964624962,
    -0.201688487799),.UNSPECIFIED.);
#349 = CARTESIAN_POINT('',(-5.695326686018,0.146223729891));
#350 = CARTESIAN_POINT('',(-5.69986138549,0.141325846123));
#351 = CARTESIAN_POINT('',(-5.704405410602,0.136498495078));
#352 = CARTESIAN_POINT('',(-5.708958790089,0.131741377197));
#353 = CARTESIAN_POINT('',(-5.713520673163,0.127055093352));
#354 = CARTESIAN_POINT('',(-5.7180925862,0.122437783798));
#355 = CARTESIAN_POINT('',(-5.722672434279,0.117891373039));
#356 = CARTESIAN_POINT('',(-5.727261636925,0.113414094865));
#357 = CARTESIAN_POINT('',(-5.731859182046,0.109006733978));
#358 = CARTESIAN_POINT('',(-5.736465405721,0.104668687));
#359 = CARTESIAN_POINT('',(-5.74569465582,9.613124989467E-02));
#360 = CARTESIAN_POINT('',(-5.750317708997,9.193183429867E-02));
#361 = CARTESIAN_POINT('',(-5.754948941486,8.780169619232E-02));
#362 = CARTESIAN_POINT('',(-5.759588498758,8.374045287345E-02));
#363 = CARTESIAN_POINT('',(-5.764236053239,7.974815875105E-02));
#364 = CARTESIAN_POINT('',(-5.768891491497,7.582466849236E-02));
#365 = CARTESIAN_POINT('',(-5.773554804197,7.1969744615E-02));
#366 = CARTESIAN_POINT('',(-5.778225757286,6.818336201921E-02));
#367 = CARTESIAN_POINT('',(-5.782904271336,6.44653482332E-02));
#368 = CARTESIAN_POINT('',(-5.796962072384,5.35160851493E-02));
#369 = CARTESIAN_POINT('',(-5.806363623352,4.648960859001E-02));
#370 = CARTESIAN_POINT('',(-5.815793821703,3.973519165338E-02));
#371 = CARTESIAN_POINT('',(-5.825251608314,3.325190855321E-02));
#372 = CARTESIAN_POINT('',(-5.83473590174,2.703887998983E-02));
#373 = CARTESIAN_POINT('',(-5.84424559868,2.109527288168E-02));
#374 = CARTESIAN_POINT('',(-5.853779574595,1.542030009761E-02));
#375 = CARTESIAN_POINT('',(-5.863336684163,1.00132201884E-02));
#376 = CARTESIAN_POINT('',(-5.872915761875,4.873337118953E-03));
#377 = CARTESIAN_POINT('',(-5.882515622533,6.314316659784E-16));
#378 = ( GEOMETRIC_REPRESENTATION_CONTEXT(2) 
PARAMETRIC_REPRESENTATION_CONTEXT() REPRESENTATION_CONTEXT('2D SPACE',''
  ) );
#379 = PCURVE('',#380,#385);
#380 = PLANE('',#381);
#381 = AXIS2_PLACEMENT_3D('',#382,#383,#384);
#382 = CARTESIAN_POINT('',(-1.,2.45,-1.E-01));
#383 = DIRECTION('',(0.,1.,0.));
#384 = DIRECTION('',(0.,0.,1.));
#385 = DEFINITIONAL_REPRESENTATION('',(#386),#390);
#386 = ( BOUNDED_CURVE() B_SPLINE_CURVE(2,(#387,#388,#389),
.UNSPECIFIED.,.F.,.F.) B_SPLINE_CURVE_WITH_KNOTS((3,3),(-0.397604011441,
-0.201688487799),.PIECEWISE_BEZIER_KNOTS.) CURVE() 
GEOMETRIC_REPRESENTATION_ITEM() RATIONAL_B_SPLINE_CURVE((1.,
1.004801699357,1.)) REPRESENTATION_ITEM('') );
#387 = CARTESIAN_POINT('',(0.25377627552,2.));
#388 = CARTESIAN_POINT('',(0.351421910135,1.74160780509));
#389 = CARTESIAN_POINT('',(0.4,1.497493718553));
#390 = ( GEOMETRIC_REPRESENTATION_CONTEXT(2) 
PARAMETRIC_REPRESENTATION_CONTEXT() REPRESENTATION_CONTEXT('2D SPACE',''
  ) );
#391 = ORIENTED_EDGE('',*,*,#392,.F.);
#392 = EDGE_CURVE('',#393,#338,#395,.T.);
#393 = VERTEX_POINT('',#394);
#394 = CARTESIAN_POINT('',(-0.497493718553,2.45,0.3));
#395 = SURFACE_CURVE('',#396,(#401,#408),.PCURVE_S1.);
#396 = CIRCLE('',#397,2.5);
#397 = AXIS2_PLACEMENT_3D('',#398,#399,#400);
#398 = CARTESIAN_POINT('',(0.,0.,0.3));
#399 = DIRECTION('',(0.,0.,1.));
#400 = DIRECTION('',(-0.198997487421,0.98,0.));
#401 = PCURVE('',#121,#402);
#402 = DEFINITIONAL_REPRESENTATION('',(#403),#407);
#403 = LINE('',#404,#405);
#404 = CARTESIAN_POINT('',(-0.,-0.));
#405 = VECTOR('',#406,1.);
#406 = DIRECTION('',(-1.,-0.));
#407 = ( GEOMETRIC_REPRESENTATION_CONTEXT(2) 
PARAMETRIC_REPRESENTATION_CONTEXT() REPRESENTATION_CONTEXT('2D SPACE',''
  ) );
#408 = PCURVE('',#409,#414);
#409 = CYLINDRICAL_SURFACE('',#410,2.5);
#410 = AXIS2_PLACEMENT_3D('',#411,#412,#413);
#411 = CARTESIAN_POINT('',(0.,0.,0.));
#412 = DIRECTION('',(0.,0.,1.));
#413 = DIRECTION('',(1.,0.,0.));
#414 = DEFINITIONAL_REPRESENTATION('',(#415),#419);
#415 = LINE('',#416,#417);
#416 = CARTESIAN_POINT('',(1.771131169118,0.3));
#417 = VECTOR('',#418,1.);
#418 = DIRECTION('',(1.,0.));
#419 = ( GEOMETRIC_REPRESENTATION_CONTEXT(2) 
PARAMETRIC_REPRESENTATION_CONTEXT() REPRESENTATION_CONTEXT('2D SPACE',''
  ) );
#420 = ORIENTED_EDGE('',*,*,#421,.F.);
#421 = EDGE_CURVE('',#171,#393,#422,.T.);
#422 = SURFACE_CURVE('',#423,(#428,#461),.PCURVE_S1.);
#423 = HYPERBOLA('',#424,2.45,2.45);
#424 = AXIS2_PLACEMENT_3D('',#425,#426,#427);
#425 = CARTESIAN_POINT('',(0.,2.45,2.8));
#426 = DIRECTION('',(0.,-1.,-0.));
#427 = DIRECTION('',(0.,0.,-1.));
#428 = PCURVE('',#121,#429);
#429 = DEFINITIONAL_REPRESENTATION('',(#430),#460);
#430 = B_SPLINE_CURVE_WITH_KNOTS('',10,(#431,#432,#433,#434,#435,#436,
    #437,#438,#439,#440,#441,#442,#443,#444,#445,#446,#447,#448,#449,
    #450,#451,#452,#453,#454,#455,#456,#457,#458,#459),.UNSPECIFIED.,.F.
  ,.F.,(11,9,9,11),(-0.397604011441,-0.34862513053,-0.29964624962,
    -0.201688487799),.UNSPECIFIED.);
#431 = CARTESIAN_POINT('',(-0.187188936516,0.146223729891));
#432 = CARTESIAN_POINT('',(-0.182654237043,0.141325846123));
#433 = CARTESIAN_POINT('',(-0.178110211932,0.136498495078));
#434 = CARTESIAN_POINT('',(-0.173556832443,0.131741377197));
#435 = CARTESIAN_POINT('',(-0.168994949372,0.127055093352));
#436 = CARTESIAN_POINT('',(-0.164423036332,0.122437783798));
#437 = CARTESIAN_POINT('',(-0.159843188256,0.117891373039));
#438 = CARTESIAN_POINT('',(-0.155253985608,0.113414094865));
#439 = CARTESIAN_POINT('',(-0.150656440488,0.109006733978));
#440 = CARTESIAN_POINT('',(-0.146050216812,0.104668687));
#441 = CARTESIAN_POINT('',(-0.136820966713,9.613124989467E-02));
#442 = CARTESIAN_POINT('',(-0.132197913537,9.193183429866E-02));
#443 = CARTESIAN_POINT('',(-0.127566681046,8.780169619236E-02));
#444 = CARTESIAN_POINT('',(-0.122927123778,8.374045287339E-02));
#445 = CARTESIAN_POINT('',(-0.118279569291,7.974815875112E-02));
#446 = CARTESIAN_POINT('',(-0.113624131039,7.58246684923E-02));
#447 = CARTESIAN_POINT('',(-0.108960818335,7.196974461503E-02));
#448 = CARTESIAN_POINT('',(-0.104289865248,6.81833620192E-02));
#449 = CARTESIAN_POINT('',(-9.961135119761E-02,6.44653482332E-02));
#450 = CARTESIAN_POINT('',(-8.55535501495E-02,5.35160851493E-02));
#451 = CARTESIAN_POINT('',(-7.615199918026E-02,4.648960859001E-02));
#452 = CARTESIAN_POINT('',(-6.672180083223E-02,3.973519165337E-02));
#453 = CARTESIAN_POINT('',(-5.726401421676E-02,3.325190855321E-02));
#454 = CARTESIAN_POINT('',(-4.777972079666E-02,2.703887998982E-02));
#455 = CARTESIAN_POINT('',(-3.827002385084E-02,2.109527288168E-02));
#456 = CARTESIAN_POINT('',(-2.873604793969E-02,1.542030009761E-02));
#457 = CARTESIAN_POINT('',(-1.917893836964E-02,1.00132201884E-02));
#458 = CARTESIAN_POINT('',(-9.599860658463E-03,4.873337118951E-03));
#459 = CARTESIAN_POINT('',(8.854579091892E-16,-5.853899895015E-16));
#460 = ( GEOMETRIC_REPRESENTATION_CONTEXT(2) 
PARAMETRIC_REPRESENTATION_CONTEXT() REPRESENTATION_CONTEXT('2D SPACE',''
  ) );
#461 = PCURVE('',#188,#462);
#462 = DEFINITIONAL_REPRESENTATION('',(#463),#467);
#463 = ( BOUNDED_CURVE() B_SPLINE_CURVE(2,(#464,#465,#466),
.UNSPECIFIED.,.F.,.F.) B_SPLINE_CURVE_WITH_KNOTS((3,3),(-0.397604011441,
-0.201688487799),.PIECEWISE_BEZIER_KNOTS.) CURVE() 
GEOMETRIC_REPRESENTATION_ITEM() RATIONAL_B_SPLINE_CURVE((1.,
1.004801699357,1.)) REPRESENTATION_ITEM('') );
#464 = CARTESIAN_POINT('',(0.25377627552,3.330669073875E-16));
#465 = CARTESIAN_POINT('',(0.351421910135,0.25839219491));
#466 = CARTESIAN_POINT('',(0.4,0.502506281447));
#467 = ( GEOMETRIC_REPRESENTATION_CONTEXT(2) 
PARAMETRIC_REPRESENTATION_CONTEXT() REPRESENTATION_CONTEXT('2D SPACE',''
  ) );
#468 = ADVANCED_FACE('',(#469),#69,.F.);
#469 = FACE_BOUND('',#470,.F.);
#470 = EDGE_LOOP('',(#471,#494,#495,#496));
#471 = ORIENTED_EDGE('',*,*,#472,.F.);
#472 = EDGE_CURVE('',#55,#473,#475,.T.);
#473 = VERTEX_POINT('',#474);
#474 = CARTESIAN_POINT('',(1.,3.75,14.));
#475 = SURFACE_CURVE('',#476,(#480,#487),.PCURVE_S1.);
#476 = LINE('',#477,#478);
#477 = CARTESIAN_POINT('',(1.,3.75,-1.E-01));
#478 = VECTOR('',#479,1.);
#479 = DIRECTION('',(0.,0.,1.));
#480 = PCURVE('',#69,#481);
#481 = DEFINITIONAL_REPRESENTATION('',(#482),#486);
#482 = LINE('',#483,#484);
#483 = CARTESIAN_POINT('',(0.,2.));
#484 = VECTOR('',#485,1.);
#485 = DIRECTION('',(1.,0.));
#486 = ( GEOMETRIC_REPRESENTATION_CONTEXT(2) 
PARAMETRIC_REPRESENTATION_CONTEXT() REPRESENTATION_CONTEXT('2D SPACE',''
  ) );
#487 = PCURVE('',#95,#488);
#488 = DEFINITIONAL_REPRESENTATION('',(#489),#493);
#489 = LINE('',#490,#491);
#490 = CARTESIAN_POINT('',(0.,-1.3));
#491 = VECTOR('',#492,1.);
#492 = DIRECTION('',(1.,0.));
#493 = ( GEOMETRIC_REPRESENTATION_CONTEXT(2) 
PARAMETRIC_REPRESENTATION_CONTEXT() REPRESENTATION_CONTEXT('2D SPACE',''
  ) );
#494 = ORIENTED_EDGE('',*,*,#54,.T.);
#495 = ORIENTED_EDGE('',*,*,#226,.T.);
#496 = ORIENTED_EDGE('',*,*,#497,.F.);
#497 = EDGE_CURVE('',#473,#227,#498,.T.);
#498 = SURFACE_CURVE('',#499,(#503,#509),.PCURVE_S1.);
#499 = LINE('',#500,#501);
#500 = CARTESIAN_POINT('',(-0.484192639306,3.75,14.));
#501 = VECTOR('',#502,1.);
#502 = DIRECTION('',(-1.,0.,0.));
#503 = PCURVE('',#69,#504);
#504 = DEFINITIONAL_REPRESENTATION('',(#505),#508);
#505 = B_SPLINE_CURVE_WITH_KNOTS('',1,(#506,#507),.UNSPECIFIED.,.F.,.F.,
  (2,2),(-1.484192639306,0.515807360694),.PIECEWISE_BEZIER_KNOTS.);
#506 = CARTESIAN_POINT('',(14.1,2.));
#507 = CARTESIAN_POINT('',(14.1,0.));
#508 = ( GEOMETRIC_REPRESENTATION_CONTEXT(2) 
PARAMETRIC_REPRESENTATION_CONTEXT() REPRESENTATION_CONTEXT('2D SPACE',''
  ) );
#509 = PCURVE('',#264,#510);
#510 = DEFINITIONAL_REPRESENTATION('',(#511),#514);
#511 = B_SPLINE_CURVE_WITH_KNOTS('',1,(#512,#513),.UNSPECIFIED.,.F.,.F.,
  (2,2),(-1.484192639306,0.515807360694),.PIECEWISE_BEZIER_KNOTS.);
#512 = CARTESIAN_POINT('',(0.968385278613,3.75));
#513 = CARTESIAN_POINT('',(-1.031614721387,3.75));
#514 = ( GEOMETRIC_REPRESENTATION_CONTEXT(2) 
PARAMETRIC_REPRESENTATION_CONTEXT() REPRESENTATION_CONTEXT('2D SPACE',''
  ) );
#515 = ADVANCED_FACE('',(#516),#95,.F.);
#516 = FACE_BOUND('',#517,.F.);
#517 = EDGE_LOOP('',(#518,#541,#542,#543,#544,#565));
#518 = ORIENTED_EDGE('',*,*,#519,.F.);
#519 = EDGE_CURVE('',#311,#520,#522,.T.);
#520 = VERTEX_POINT('',#521);
#521 = CARTESIAN_POINT('',(1.,2.45,13.84622372448));
#522 = SURFACE_CURVE('',#523,(#527,#534),.PCURVE_S1.);
#523 = LINE('',#524,#525);
#524 = CARTESIAN_POINT('',(1.,2.45,-1.E-01));
#525 = VECTOR('',#526,1.);
#526 = DIRECTION('',(0.,0.,1.));
#527 = PCURVE('',#95,#528);
#528 = DEFINITIONAL_REPRESENTATION('',(#529),#533);
#529 = LINE('',#530,#531);
#530 = CARTESIAN_POINT('',(0.,0.));
#531 = VECTOR('',#532,1.);
#532 = DIRECTION('',(1.,0.));
#533 = ( GEOMETRIC_REPRESENTATION_CONTEXT(2) 
PARAMETRIC_REPRESENTATION_CONTEXT() REPRESENTATION_CONTEXT('2D SPACE',''
  ) );
#534 = PCURVE('',#380,#535);
#535 = DEFINITIONAL_REPRESENTATION('',(#536),#540);
#536 = LINE('',#537,#538);
#537 = CARTESIAN_POINT('',(0.,2.));
#538 = VECTOR('',#539,1.);
#539 = DIRECTION('',(1.,0.));
#540 = ( GEOMETRIC_REPRESENTATION_CONTEXT(2) 
PARAMETRIC_REPRESENTATION_CONTEXT() REPRESENTATION_CONTEXT('2D SPACE',''
  ) );
#541 = ORIENTED_EDGE('',*,*,#310,.F.);
#542 = ORIENTED_EDGE('',*,*,#80,.T.);
#543 = ORIENTED_EDGE('',*,*,#472,.T.);
#544 = ORIENTED_EDGE('',*,*,#545,.F.);
#545 = EDGE_CURVE('',#546,#473,#548,.T.);
#546 = VERTEX_POINT('',#547);
#547 = CARTESIAN_POINT('',(1.,2.615339366124,14.));
#548 = SURFACE_CURVE('',#549,(#553,#559),.PCURVE_S1.);
#549 = LINE('',#550,#551);
#550 = CARTESIAN_POINT('',(1.,1.225,14.));
#551 = VECTOR('',#552,1.);
#552 = DIRECTION('',(0.,1.,0.));
#553 = PCURVE('',#95,#554);
#554 = DEFINITIONAL_REPRESENTATION('',(#555),#558);
#555 = B_SPLINE_CURVE_WITH_KNOTS('',1,(#556,#557),.UNSPECIFIED.,.F.,.F.,
  (2,2),(1.225,2.525),.PIECEWISE_BEZIER_KNOTS.);
#556 = CARTESIAN_POINT('',(14.1,0.));
#557 = CARTESIAN_POINT('',(14.1,-1.3));
#558 = ( GEOMETRIC_REPRESENTATION_CONTEXT(2) 
PARAMETRIC_REPRESENTATION_CONTEXT() REPRESENTATION_CONTEXT('2D SPACE',''
  ) );
#559 = PCURVE('',#264,#560);
#560 = DEFINITIONAL_REPRESENTATION('',(#561),#564);
#561 = B_SPLINE_CURVE_WITH_KNOTS('',1,(#562,#563),.UNSPECIFIED.,.F.,.F.,
  (2,2),(1.225,2.525),.PIECEWISE_BEZIER_KNOTS.);
#562 = CARTESIAN_POINT('',(0.968385278613,2.45));
#563 = CARTESIAN_POINT('',(0.968385278613,3.75));
#564 = ( GEOMETRIC_REPRESENTATION_CONTEXT(2) 
PARAMETRIC_REPRESENTATION_CONTEXT() REPRESENTATION_CONTEXT('2D SPACE',''
  ) );
#565 = ORIENTED_EDGE('',*,*,#566,.T.);
#566 = EDGE_CURVE('',#546,#520,#567,.T.);
#567 = SURFACE_CURVE('',#568,(#573,#580),.PCURVE_S1.);
#568 = HYPERBOLA('',#569,1.,1.);
#569 = AXIS2_PLACEMENT_3D('',#570,#571,#572);
#570 = CARTESIAN_POINT('',(1.,0.,11.2));
#571 = DIRECTION('',(1.,0.,0.));
#572 = DIRECTION('',(0.,-0.,1.));
#573 = PCURVE('',#95,#574);
#574 = DEFINITIONAL_REPRESENTATION('',(#575),#579);
#575 = ( BOUNDED_CURVE() B_SPLINE_CURVE(2,(#576,#577,#578),
.UNSPECIFIED.,.F.,.F.) B_SPLINE_CURVE_WITH_KNOTS((3,3),(-1.68923554998,
-1.628499819284),.PIECEWISE_BEZIER_KNOTS.) CURVE() 
GEOMETRIC_REPRESENTATION_ITEM() RATIONAL_B_SPLINE_CURVE((1.,
1.00046113906,1.)) REPRESENTATION_ITEM('') );
#576 = CARTESIAN_POINT('',(14.1,-0.165339366124));
#577 = CARTESIAN_POINT('',(14.020602131886,-8.033547194587E-02));
#578 = CARTESIAN_POINT('',(13.94622372448,2.22044604925E-15));
#579 = ( GEOMETRIC_REPRESENTATION_CONTEXT(2) 
PARAMETRIC_REPRESENTATION_CONTEXT() REPRESENTATION_CONTEXT('2D SPACE',''
  ) );
#580 = PCURVE('',#290,#581);
#581 = DEFINITIONAL_REPRESENTATION('',(#582),#589);
#582 = B_SPLINE_CURVE_WITH_KNOTS('',5,(#583,#584,#585,#586,#587,#588),
  .UNSPECIFIED.,.F.,.F.,(6,6),(-1.68923554998,-1.628499819284),
  .PIECEWISE_BEZIER_KNOTS.);
#583 = CARTESIAN_POINT('',(-0.164872378967,0.3));
#584 = CARTESIAN_POINT('',(-0.169210645446,0.268231090516));
#585 = CARTESIAN_POINT('',(-0.173610439645,0.236978617023));
#586 = CARTESIAN_POINT('',(-0.178072754812,0.2062328139));
#587 = CARTESIAN_POINT('',(-0.182598593388,0.175984232544));
#588 = CARTESIAN_POINT('',(-0.187188963441,0.146223724504));
#589 = ( GEOMETRIC_REPRESENTATION_CONTEXT(2) 
PARAMETRIC_REPRESENTATION_CONTEXT() REPRESENTATION_CONTEXT('2D SPACE',''
  ) );
#590 = ADVANCED_FACE('',(#591),#152,.F.);
#591 = FACE_BOUND('',#592,.F.);
#592 = EDGE_LOOP('',(#593,#616,#638,#639));
#593 = ORIENTED_EDGE('',*,*,#594,.T.);
#594 = EDGE_CURVE('',#136,#595,#597,.T.);
#595 = VERTEX_POINT('',#596);
#596 = CARTESIAN_POINT('',(13.5,0.,14.));
#597 = SEAM_CURVE('',#598,(#602,#609),.PCURVE_S1.);
#598 = LINE('',#599,#600);
#599 = CARTESIAN_POINT('',(13.5,0.,0.));
#600 = VECTOR('',#601,1.);
#601 = DIRECTION('',(0.,0.,1.));
#602 = PCURVE('',#152,#603);
#603 = DEFINITIONAL_REPRESENTATION('',(#604),#608);
#604 = LINE('',#605,#606);
#605 = CARTESIAN_POINT('',(0.,0.));
#606 = VECTOR('',#607,1.);
#607 = DIRECTION('',(0.,-1.));
#608 = ( GEOMETRIC_REPRESENTATION_CONTEXT(2) 
PARAMETRIC_REPRESENTATION_CONTEXT() REPRESENTATION_CONTEXT('2D SPACE',''
  ) );
#609 = PCURVE('',#152,#610);
#610 = DEFINITIONAL_REPRESENTATION('',(#611),#615);
#611 = LINE('',#612,#613);
#612 = CARTESIAN_POINT('',(6.28318530718,0.));
#613 = VECTOR('',#614,1.);
#614 = DIRECTION('',(0.,-1.));
#615 = ( GEOMETRIC_REPRESENTATION_CONTEXT(2) 
PARAMETRIC_REPRESENTATION_CONTEXT() REPRESENTATION_CONTEXT('2D SPACE',''
  ) );
#616 = ORIENTED_EDGE('',*,*,#617,.T.);
#617 = EDGE_CURVE('',#595,#595,#618,.T.);
#618 = SURFACE_CURVE('',#619,(#624,#631),.PCURVE_S1.);
#619 = ELLIPSE('',#620,13.5,13.25);
#620 = AXIS2_PLACEMENT_3D('',#621,#622,#623);
#621 = CARTESIAN_POINT('',(0.,0.,14.));
#622 = DIRECTION('',(0.,0.,1.));
#623 = DIRECTION('',(1.,0.,0.));
#624 = PCURVE('',#152,#625);
#625 = DEFINITIONAL_REPRESENTATION('',(#626),#630);
#626 = LINE('',#627,#628);
#627 = CARTESIAN_POINT('',(0.,-14.));
#628 = VECTOR('',#629,1.);
#629 = DIRECTION('',(1.,0.));
#630 = ( GEOMETRIC_REPRESENTATION_CONTEXT(2) 
PARAMETRIC_REPRESENTATION_CONTEXT() REPRESENTATION_CONTEXT('2D SPACE',''
  ) );
#631 = PCURVE('',#264,#632);
#632 = DEFINITIONAL_REPRESENTATION('',(#633),#637);
#633 = ELLIPSE('',#634,13.5,13.25);
#634 = AXIS2_PLACEMENT_2D('',#635,#636);
#635 = CARTESIAN_POINT('',(-3.161472138739E-02,-2.744713450752E-16));
#636 = DIRECTION('',(1.,0.));
#637 = ( GEOMETRIC_REPRESENTATION_CONTEXT(2) 
PARAMETRIC_REPRESENTATION_CONTEXT() REPRESENTATION_CONTEXT('2D SPACE',''
  ) );
#638 = ORIENTED_EDGE('',*,*,#594,.F.);
#639 = ORIENTED_EDGE('',*,*,#135,.F.);
#640 = ADVANCED_FACE('',(#641),#188,.T.);
#641 = FACE_BOUND('',#642,.T.);
#642 = EDGE_LOOP('',(#643,#664,#665,#666));
#643 = ORIENTED_EDGE('',*,*,#644,.F.);
#644 = EDGE_CURVE('',#393,#645,#647,.T.);
#645 = VERTEX_POINT('',#646);
#646 = CARTESIAN_POINT('',(-0.497493718553,2.45,13.7));
#647 = SURFACE_CURVE('',#648,(#652,#658),.PCURVE_S1.);
#648 = LINE('',#649,#650);
#649 = CARTESIAN_POINT('',(-0.497493718553,2.45,0.));
#650 = VECTOR('',#651,1.);
#651 = DIRECTION('',(0.,0.,1.));
#652 = PCURVE('',#188,#653);
#653 = DEFINITIONAL_REPRESENTATION('',(#654),#657);
#654 = B_SPLINE_CURVE_WITH_KNOTS('',1,(#655,#656),.UNSPECIFIED.,.F.,.F.,
  (2,2),(-6.E-07,14.0000006),.PIECEWISE_BEZIER_KNOTS.);
#655 = CARTESIAN_POINT('',(9.99994E-02,0.502506281447));
#656 = CARTESIAN_POINT('',(14.1000006,0.502506281447));
#657 = ( GEOMETRIC_REPRESENTATION_CONTEXT(2) 
PARAMETRIC_REPRESENTATION_CONTEXT() REPRESENTATION_CONTEXT('2D SPACE',''
  ) );
#658 = PCURVE('',#409,#659);
#659 = DEFINITIONAL_REPRESENTATION('',(#660),#663);
#660 = B_SPLINE_CURVE_WITH_KNOTS('',1,(#661,#662),.UNSPECIFIED.,.F.,.F.,
  (2,2),(0.,14.),.PIECEWISE_BEZIER_KNOTS.);
#661 = CARTESIAN_POINT('',(1.771131169118,0.));
#662 = CARTESIAN_POINT('',(1.771131169118,14.));
#663 = ( GEOMETRIC_REPRESENTATION_CONTEXT(2) 
PARAMETRIC_REPRESENTATION_CONTEXT() REPRESENTATION_CONTEXT('2D SPACE',''
  ) );
#664 = ORIENTED_EDGE('',*,*,#421,.F.);
#665 = ORIENTED_EDGE('',*,*,#170,.T.);
#666 = ORIENTED_EDGE('',*,*,#667,.T.);
#667 = EDGE_CURVE('',#173,#645,#668,.T.);
#668 = SURFACE_CURVE('',#669,(#674,#681),.PCURVE_S1.);
#669 = HYPERBOLA('',#670,2.45,2.45);
#670 = AXIS2_PLACEMENT_3D('',#671,#672,#673);
#671 = CARTESIAN_POINT('',(0.,2.45,11.2));
#672 = DIRECTION('',(0.,1.,0.));
#673 = DIRECTION('',(0.,-0.,1.));
#674 = PCURVE('',#188,#675);
#675 = DEFINITIONAL_REPRESENTATION('',(#676),#680);
#676 = ( BOUNDED_CURVE() B_SPLINE_CURVE(2,(#677,#678,#679),
.UNSPECIFIED.,.F.,.F.) B_SPLINE_CURVE_WITH_KNOTS((3,3),(-0.397604011441,
-0.201688487799),.PIECEWISE_BEZIER_KNOTS.) CURVE() 
GEOMETRIC_REPRESENTATION_ITEM() RATIONAL_B_SPLINE_CURVE((1.,
1.004801699357,1.)) REPRESENTATION_ITEM('') );
#677 = CARTESIAN_POINT('',(13.94622372448,1.443289932013E-15));
#678 = CARTESIAN_POINT('',(13.848578089865,0.25839219491));
#679 = CARTESIAN_POINT('',(13.8,0.502506281447));
#680 = ( GEOMETRIC_REPRESENTATION_CONTEXT(2) 
PARAMETRIC_REPRESENTATION_CONTEXT() REPRESENTATION_CONTEXT('2D SPACE',''
  ) );
#681 = PCURVE('',#290,#682);
#682 = DEFINITIONAL_REPRESENTATION('',(#683),#713);
#683 = B_SPLINE_CURVE_WITH_KNOTS('',10,(#684,#685,#686,#687,#688,#689,
    #690,#691,#692,#693,#694,#695,#696,#697,#698,#699,#700,#701,#702,
    #703,#704,#705,#706,#707,#708,#709,#710,#711,#712),.UNSPECIFIED.,.F.
  ,.F.,(11,9,9,11),(-0.397604011441,-0.34862513053,-0.29964624962,
    -0.201688487799),.UNSPECIFIED.);
#684 = CARTESIAN_POINT('',(-5.695326686018,0.146223729891));
#685 = CARTESIAN_POINT('',(-5.69986138549,0.141325846123));
#686 = CARTESIAN_POINT('',(-5.704405410602,0.136498495078));
#687 = CARTESIAN_POINT('',(-5.708958790089,0.131741377197));
#688 = CARTESIAN_POINT('',(-5.713520673163,0.127055093352));
#689 = CARTESIAN_POINT('',(-5.718092586199,0.122437783798));
#690 = CARTESIAN_POINT('',(-5.72267243428,0.117891373039));
#691 = CARTESIAN_POINT('',(-5.727261636924,0.113414094865));
#692 = CARTESIAN_POINT('',(-5.731859182046,0.109006733978));
#693 = CARTESIAN_POINT('',(-5.736465405721,0.104668687));
#694 = CARTESIAN_POINT('',(-5.74569465582,9.613124989467E-02));
#695 = CARTESIAN_POINT('',(-5.750317708996,9.193183429865E-02));
#696 = CARTESIAN_POINT('',(-5.754948941489,8.780169619236E-02));
#697 = CARTESIAN_POINT('',(-5.759588498754,8.374045287341E-02));
#698 = CARTESIAN_POINT('',(-5.764236053243,7.974815875108E-02));
#699 = CARTESIAN_POINT('',(-5.768891491494,7.582466849233E-02));
#700 = CARTESIAN_POINT('',(-5.773554804198,7.196974461501E-02));
#701 = CARTESIAN_POINT('',(-5.778225757286,6.81833620192E-02));
#702 = CARTESIAN_POINT('',(-5.782904271336,6.44653482332E-02));
#703 = CARTESIAN_POINT('',(-5.796962072384,5.35160851493E-02));
#704 = CARTESIAN_POINT('',(-5.806363623353,4.648960859001E-02));
#705 = CARTESIAN_POINT('',(-5.815793821701,3.973519165336E-02));
#706 = CARTESIAN_POINT('',(-5.825251608317,3.325190855323E-02));
#707 = CARTESIAN_POINT('',(-5.834735901737,2.703887998981E-02));
#708 = CARTESIAN_POINT('',(-5.844245598682,2.10952728817E-02));
#709 = CARTESIAN_POINT('',(-5.853779574594,1.54203000976E-02));
#710 = CARTESIAN_POINT('',(-5.863336684163,1.001322018841E-02));
#711 = CARTESIAN_POINT('',(-5.872915761875,4.873337118952E-03));
#712 = CARTESIAN_POINT('',(-5.882515622533,8.890914512287E-16));
#713 = ( GEOMETRIC_REPRESENTATION_CONTEXT(2) 
PARAMETRIC_REPRESENTATION_CONTEXT() REPRESENTATION_CONTEXT('2D SPACE',''
  ) );
#714 = ADVANCED_FACE('',(#715),#290,.F.);
#715 = FACE_BOUND('',#716,.F.);
#716 = EDGE_LOOP('',(#717,#718,#744,#745,#746,#770));
#717 = ORIENTED_EDGE('',*,*,#566,.F.);
#718 = ORIENTED_EDGE('',*,*,#719,.T.);
#719 = EDGE_CURVE('',#546,#250,#720,.T.);
#720 = SURFACE_CURVE('',#721,(#726,#733),.PCURVE_S1.);
#721 = CIRCLE('',#722,2.8);
#722 = AXIS2_PLACEMENT_3D('',#723,#724,#725);
#723 = CARTESIAN_POINT('',(0.,0.,14.));
#724 = DIRECTION('',(0.,-0.,-1.));
#725 = DIRECTION('',(0.198997487421,0.98,-0.));
#726 = PCURVE('',#290,#727);
#727 = DEFINITIONAL_REPRESENTATION('',(#728),#732);
#728 = LINE('',#729,#730);
#729 = CARTESIAN_POINT('',(0.,0.3));
#730 = VECTOR('',#731,1.);
#731 = DIRECTION('',(-1.,-0.));
#732 = ( GEOMETRIC_REPRESENTATION_CONTEXT(2) 
PARAMETRIC_REPRESENTATION_CONTEXT() REPRESENTATION_CONTEXT('2D SPACE',''
  ) );
#733 = PCURVE('',#264,#734);
#734 = DEFINITIONAL_REPRESENTATION('',(#735),#743);
#735 = ( BOUNDED_CURVE() B_SPLINE_CURVE(2,(#736,#737,#738,#739,#740,#741
,#742),.UNSPECIFIED.,.T.,.F.) B_SPLINE_CURVE_WITH_KNOTS((1,2,2,2,2,1),(
    -2.094395102393,0.,2.094395102393,4.188790204786,6.28318530718,
8.377580409573),.UNSPECIFIED.) CURVE() GEOMETRIC_REPRESENTATION_ITEM() 
RATIONAL_B_SPLINE_CURVE((1.,0.5,1.,0.5,1.,0.5,1.)) REPRESENTATION_ITEM(
  '') );
#736 = CARTESIAN_POINT('',(0.525578243392,2.744));
#737 = CARTESIAN_POINT('',(5.278325659361,1.778913475382));
#738 = CARTESIAN_POINT('',(2.066162504207,-1.854543262309));
#739 = CARTESIAN_POINT('',(-1.146000650947,-5.488));
#740 = CARTESIAN_POINT('',(-2.686584911762,-0.889456737691));
#741 = CARTESIAN_POINT('',(-4.227169172577,3.709086524618));
#742 = CARTESIAN_POINT('',(0.525578243392,2.744));
#743 = ( GEOMETRIC_REPRESENTATION_CONTEXT(2) 
PARAMETRIC_REPRESENTATION_CONTEXT() REPRESENTATION_CONTEXT('2D SPACE',''
  ) );
#744 = ORIENTED_EDGE('',*,*,#275,.T.);
#745 = ORIENTED_EDGE('',*,*,#667,.T.);
#746 = ORIENTED_EDGE('',*,*,#747,.F.);
#747 = EDGE_CURVE('',#748,#645,#750,.T.);
#748 = VERTEX_POINT('',#749);
#749 = CARTESIAN_POINT('',(0.497493718553,2.45,13.7));
#750 = SURFACE_CURVE('',#751,(#756,#763),.PCURVE_S1.);
#751 = CIRCLE('',#752,2.5);
#752 = AXIS2_PLACEMENT_3D('',#753,#754,#755);
#753 = CARTESIAN_POINT('',(0.,0.,13.7));
#754 = DIRECTION('',(0.,-0.,-1.));
#755 = DIRECTION('',(0.198997487421,0.98,-0.));
#756 = PCURVE('',#290,#757);
#757 = DEFINITIONAL_REPRESENTATION('',(#758),#762);
#758 = LINE('',#759,#760);
#759 = CARTESIAN_POINT('',(-0.,-0.));
#760 = VECTOR('',#761,1.);
#761 = DIRECTION('',(-1.,-0.));
#762 = ( GEOMETRIC_REPRESENTATION_CONTEXT(2) 
PARAMETRIC_REPRESENTATION_CONTEXT() REPRESENTATION_CONTEXT('2D SPACE',''
  ) );
#763 = PCURVE('',#409,#764);
#764 = DEFINITIONAL_REPRESENTATION('',(#765),#769);
#765 = LINE('',#766,#767);
#766 = CARTESIAN_POINT('',(7.653646791651,13.7));
#767 = VECTOR('',#768,1.);
#768 = DIRECTION('',(-1.,-0.));
#769 = ( GEOMETRIC_REPRESENTATION_CONTEXT(2) 
PARAMETRIC_REPRESENTATION_CONTEXT() REPRESENTATION_CONTEXT('2D SPACE',''
  ) );
#770 = ORIENTED_EDGE('',*,*,#771,.F.);
#771 = EDGE_CURVE('',#520,#748,#772,.T.);
#772 = SURFACE_CURVE('',#773,(#778,#811),.PCURVE_S1.);
#773 = HYPERBOLA('',#774,2.45,2.45);
#774 = AXIS2_PLACEMENT_3D('',#775,#776,#777);
#775 = CARTESIAN_POINT('',(0.,2.45,11.2));
#776 = DIRECTION('',(-0.,-1.,0.));
#777 = DIRECTION('',(0.,-0.,1.));
#778 = PCURVE('',#290,#779);
#779 = DEFINITIONAL_REPRESENTATION('',(#780),#810);
#780 = B_SPLINE_CURVE_WITH_KNOTS('',10,(#781,#782,#783,#784,#785,#786,
    #787,#788,#789,#790,#791,#792,#793,#794,#795,#796,#797,#798,#799,
    #800,#801,#802,#803,#804,#805,#806,#807,#808,#809),.UNSPECIFIED.,.F.
  ,.F.,(11,9,9,11),(-0.397604011441,-0.34862513053,-0.29964624962,
    -0.201688487799),.UNSPECIFIED.);
#781 = CARTESIAN_POINT('',(-0.187188936516,0.146223729891));
#782 = CARTESIAN_POINT('',(-0.182654237043,0.141325846123));
#783 = CARTESIAN_POINT('',(-0.178110211932,0.136498495078));
#784 = CARTESIAN_POINT('',(-0.173556832443,0.131741377197));
#785 = CARTESIAN_POINT('',(-0.168994949372,0.127055093352));
#786 = CARTESIAN_POINT('',(-0.164423036331,0.122437783798));
#787 = CARTESIAN_POINT('',(-0.159843188256,0.117891373039));
#788 = CARTESIAN_POINT('',(-0.155253985608,0.113414094865));
#789 = CARTESIAN_POINT('',(-0.150656440488,0.109006733978));
#790 = CARTESIAN_POINT('',(-0.146050216812,0.104668687));
#791 = CARTESIAN_POINT('',(-0.136820966713,9.613124989467E-02));
#792 = CARTESIAN_POINT('',(-0.132197913537,9.193183429867E-02));
#793 = CARTESIAN_POINT('',(-0.127566681046,8.780169619233E-02));
#794 = CARTESIAN_POINT('',(-0.122927123778,8.374045287343E-02));
#795 = CARTESIAN_POINT('',(-0.118279569291,7.974815875108E-02));
#796 = CARTESIAN_POINT('',(-0.113624131039,7.582466849233E-02));
#797 = CARTESIAN_POINT('',(-0.108960818335,7.196974461502E-02));
#798 = CARTESIAN_POINT('',(-0.104289865248,6.81833620192E-02));
#799 = CARTESIAN_POINT('',(-9.961135119761E-02,6.44653482332E-02));
#800 = CARTESIAN_POINT('',(-8.55535501495E-02,5.35160851493E-02));
#801 = CARTESIAN_POINT('',(-7.615199918026E-02,4.648960859001E-02));
#802 = CARTESIAN_POINT('',(-6.672180083222E-02,3.973519165337E-02));
#803 = CARTESIAN_POINT('',(-5.726401421677E-02,3.325190855322E-02));
#804 = CARTESIAN_POINT('',(-4.777972079665E-02,2.703887998982E-02));
#805 = CARTESIAN_POINT('',(-3.827002385084E-02,2.109527288169E-02));
#806 = CARTESIAN_POINT('',(-2.873604793968E-02,1.542030009761E-02));
#807 = CARTESIAN_POINT('',(-1.917893836964E-02,1.001322018841E-02));
#808 = CARTESIAN_POINT('',(-9.599860658464E-03,4.873337118951E-03));
#809 = CARTESIAN_POINT('',(4.218383393029E-18,-2.223061084309E-16));
#810 = ( GEOMETRIC_REPRESENTATION_CONTEXT(2) 
PARAMETRIC_REPRESENTATION_CONTEXT() REPRESENTATION_CONTEXT('2D SPACE',''
  ) );
#811 = PCURVE('',#380,#812);
#812 = DEFINITIONAL_REPRESENTATION('',(#813),#817);
#813 = ( BOUNDED_CURVE() B_SPLINE_CURVE(2,(#814,#815,#816),
.UNSPECIFIED.,.F.,.F.) B_SPLINE_CURVE_WITH_KNOTS((3,3),(-0.397604011441,
-0.201688487799),.PIECEWISE_BEZIER_KNOTS.) CURVE() 
GEOMETRIC_REPRESENTATION_ITEM() RATIONAL_B_SPLINE_CURVE((1.,
1.004801699357,1.)) REPRESENTATION_ITEM('') );
#814 = CARTESIAN_POINT('',(13.94622372448,2.));
#815 = CARTESIAN_POINT('',(13.848578089865,1.74160780509));
#816 = CARTESIAN_POINT('',(13.8,1.497493718553));
#817 = ( GEOMETRIC_REPRESENTATION_CONTEXT(2) 
PARAMETRIC_REPRESENTATION_CONTEXT() REPRESENTATION_CONTEXT('2D SPACE',''
  ) );
#818 = ADVANCED_FACE('',(#819,#825),#264,.T.);
#819 = FACE_BOUND('',#820,.T.);
#820 = EDGE_LOOP('',(#821,#822,#823,#824));
#821 = ORIENTED_EDGE('',*,*,#249,.T.);
#822 = ORIENTED_EDGE('',*,*,#497,.F.);
#823 = ORIENTED_EDGE('',*,*,#545,.F.);
#824 = ORIENTED_EDGE('',*,*,#719,.T.);
#825 = FACE_BOUND('',#826,.T.);
#826 = EDGE_LOOP('',(#827));
#827 = ORIENTED_EDGE('',*,*,#617,.T.);
#828 = ADVANCED_FACE('',(#829),#409,.F.);
#829 = FACE_BOUND('',#830,.F.);
#830 = EDGE_LOOP('',(#831,#832,#833,#852));
#831 = ORIENTED_EDGE('',*,*,#644,.F.);
#832 = ORIENTED_EDGE('',*,*,#392,.T.);
#833 = ORIENTED_EDGE('',*,*,#834,.T.);
#834 = EDGE_CURVE('',#338,#748,#835,.T.);
#835 = SURFACE_CURVE('',#836,(#840,#846),.PCURVE_S1.);
#836 = LINE('',#837,#838);
#837 = CARTESIAN_POINT('',(0.497493718553,2.45,0.));
#838 = VECTOR('',#839,1.);
#839 = DIRECTION('',(0.,0.,1.));
#840 = PCURVE('',#409,#841);
#841 = DEFINITIONAL_REPRESENTATION('',(#842),#845);
#842 = B_SPLINE_CURVE_WITH_KNOTS('',1,(#843,#844),.UNSPECIFIED.,.F.,.F.,
  (2,2),(0.,14.),.PIECEWISE_BEZIER_KNOTS.);
#843 = CARTESIAN_POINT('',(7.653646791651,0.));
#844 = CARTESIAN_POINT('',(7.653646791651,14.));
#845 = ( GEOMETRIC_REPRESENTATION_CONTEXT(2) 
PARAMETRIC_REPRESENTATION_CONTEXT() REPRESENTATION_CONTEXT('2D SPACE',''
  ) );
#846 = PCURVE('',#380,#847);
#847 = DEFINITIONAL_REPRESENTATION('',(#848),#851);
#848 = B_SPLINE_CURVE_WITH_KNOTS('',1,(#849,#850),.UNSPECIFIED.,.F.,.F.,
  (2,2),(-6.E-07,14.0000006),.PIECEWISE_BEZIER_KNOTS.);
#849 = CARTESIAN_POINT('',(9.99994E-02,1.497493718553));
#850 = CARTESIAN_POINT('',(14.1000006,1.497493718553));
#851 = ( GEOMETRIC_REPRESENTATION_CONTEXT(2) 
PARAMETRIC_REPRESENTATION_CONTEXT() REPRESENTATION_CONTEXT('2D SPACE',''
  ) );
#852 = ORIENTED_EDGE('',*,*,#747,.T.);
#853 = ADVANCED_FACE('',(#854),#380,.T.);
#854 = FACE_BOUND('',#855,.T.);
#855 = EDGE_LOOP('',(#856,#857,#858,#859));
#856 = ORIENTED_EDGE('',*,*,#519,.F.);
#857 = ORIENTED_EDGE('',*,*,#337,.T.);
#858 = ORIENTED_EDGE('',*,*,#834,.T.);
#859 = ORIENTED_EDGE('',*,*,#771,.F.);
#860 = ( GEOMETRIC_REPRESENTATION_CONTEXT(3) 
GLOBAL_UNCERTAINTY_ASSIGNED_CONTEXT((#864)) GLOBAL_UNIT_ASSIGNED_CONTEXT
((#861,#862,#863)) REPRESENTATION_CONTEXT('Context #1',
  '3D Context with UNIT and UNCERTAINTY') );
#861 = ( LENGTH_UNIT() NAMED_UNIT(*) SI_UNIT(.MILLI.,.METRE.) );
#862 = ( NAMED_UNIT(*) PLANE_ANGLE_UNIT() SI_UNIT($,.RADIAN.) );
#863 = ( NAMED_UNIT(*) SI_UNIT($,.STERADIAN.) SOLID_ANGLE_UNIT() );
#864 = UNCERTAINTY_MEASURE_WITH_UNIT(LENGTH_MEASURE(2.E-07),#861,
  'distance_accuracy_value','confusion accuracy');
#865 = PRODUCT_RELATED_PRODUCT_CATEGORY('part',$,(#7));
ENDSEC;
END-ISO-10303-21;
