ISO-10303-21;
HEADER;
FILE_DESCRIPTION(('Open CASCADE Model'),'2;1');
FILE_NAME('Open CASCADE Shape Model','2026-04-28T00:16:49',('Author'),(
    'Open CASCADE'),'Open CASCADE STEP processor 7.8','build123d',
  'Unknown');
FILE_SCHEMA(('AUTOMOTIVE_DESIGN { 1 0 10303 214 1 1 1 1 }'));
ENDSEC;
DATA;
#1 = APPLICATION_PROTOCOL_DEFINITION('international standard',
  'automotive_design',2000,#2);
#2 = APPLICATION_CONTEXT(
  'core data for automotive mechanical design processes');
#3 = SHAPE_DEFINITION_REPRESENTATION(#4,#10);
#4 = PRODUCT_DEFINITION_SHAPE('','',#5);
#5 = PRODUCT_DEFINITION('design','',#6,#9);
#6 = PRODUCT_DEFINITION_FORMATION('','',#7);
#7 = PRODUCT('COMPOUND','COMPOUND','',(#8));
#8 = PRODUCT_CONTEXT('',#2,'mechanical');
#9 = PRODUCT_DEFINITION_CONTEXT('part definition',#2,'design');
#10 = ADVANCED_BREP_SHAPE_REPRESENTATION('',(#11,#15),#936);
#11 = AXIS2_PLACEMENT_3D('',#12,#13,#14);
#12 = CARTESIAN_POINT('',(0.,0.,0.));
#13 = DIRECTION('',(0.,0.,1.));
#14 = DIRECTION('',(1.,0.,-0.));
#15 = MANIFOLD_SOLID_BREP('',#16);
#16 = CLOSED_SHELL('',(#17,#105,#140,#175,#440,#817,#852,#879,#909));
#17 = ADVANCED_FACE('',(#18),#31,.T.);
#18 = FACE_BOUND('',#19,.T.);
#19 = EDGE_LOOP('',(#20,#54,#77,#104));
#20 = ORIENTED_EDGE('',*,*,#21,.F.);
#21 = EDGE_CURVE('',#22,#22,#24,.T.);
#22 = VERTEX_POINT('',#23);
#23 = CARTESIAN_POINT('',(7.362,-1.803169947065E-15,-3.));
#24 = SURFACE_CURVE('',#25,(#30,#42),.PCURVE_S1.);
#25 = CIRCLE('',#26,7.362);
#26 = AXIS2_PLACEMENT_3D('',#27,#28,#29);
#27 = CARTESIAN_POINT('',(0.,0.,-3.));
#28 = DIRECTION('',(0.,0.,1.));
#29 = DIRECTION('',(1.,0.,0.));
#30 = PCURVE('',#31,#36);
#31 = CYLINDRICAL_SURFACE('',#32,7.362);
#32 = AXIS2_PLACEMENT_3D('',#33,#34,#35);
#33 = CARTESIAN_POINT('',(0.,0.,-4.));
#34 = DIRECTION('',(0.,0.,1.));
#35 = DIRECTION('',(1.,0.,0.));
#36 = DEFINITIONAL_REPRESENTATION('',(#37),#41);
#37 = LINE('',#38,#39);
#38 = CARTESIAN_POINT('',(0.,1.));
#39 = VECTOR('',#40,1.);
#40 = DIRECTION('',(1.,0.));
#41 = ( GEOMETRIC_REPRESENTATION_CONTEXT(2) 
PARAMETRIC_REPRESENTATION_CONTEXT() REPRESENTATION_CONTEXT('2D SPACE',''
  ) );
#42 = PCURVE('',#43,#48);
#43 = PLANE('',#44);
#44 = AXIS2_PLACEMENT_3D('',#45,#46,#47);
#45 = CARTESIAN_POINT('',(0.,0.,-3.));
#46 = DIRECTION('',(0.,0.,1.));
#47 = DIRECTION('',(1.,0.,0.));
#48 = DEFINITIONAL_REPRESENTATION('',(#49),#53);
#49 = CIRCLE('',#50,7.362);
#50 = AXIS2_PLACEMENT_2D('',#51,#52);
#51 = CARTESIAN_POINT('',(0.,0.));
#52 = DIRECTION('',(1.,0.));
#53 = ( GEOMETRIC_REPRESENTATION_CONTEXT(2) 
PARAMETRIC_REPRESENTATION_CONTEXT() REPRESENTATION_CONTEXT('2D SPACE',''
  ) );
#54 = ORIENTED_EDGE('',*,*,#55,.F.);
#55 = EDGE_CURVE('',#56,#22,#58,.T.);
#56 = VERTEX_POINT('',#57);
#57 = CARTESIAN_POINT('',(7.362,-1.803169947065E-15,-4.));
#58 = SEAM_CURVE('',#59,(#63,#70),.PCURVE_S1.);
#59 = LINE('',#60,#61);
#60 = CARTESIAN_POINT('',(7.362,-1.803169947065E-15,-4.));
#61 = VECTOR('',#62,1.);
#62 = DIRECTION('',(0.,0.,1.));
#63 = PCURVE('',#31,#64);
#64 = DEFINITIONAL_REPRESENTATION('',(#65),#69);
#65 = LINE('',#66,#67);
#66 = CARTESIAN_POINT('',(6.28318530718,-0.));
#67 = VECTOR('',#68,1.);
#68 = DIRECTION('',(0.,1.));
#69 = ( GEOMETRIC_REPRESENTATION_CONTEXT(2) 
PARAMETRIC_REPRESENTATION_CONTEXT() REPRESENTATION_CONTEXT('2D SPACE',''
  ) );
#70 = PCURVE('',#31,#71);
#71 = DEFINITIONAL_REPRESENTATION('',(#72),#76);
#72 = LINE('',#73,#74);
#73 = CARTESIAN_POINT('',(0.,-0.));
#74 = VECTOR('',#75,1.);
#75 = DIRECTION('',(0.,1.));
#76 = ( GEOMETRIC_REPRESENTATION_CONTEXT(2) 
PARAMETRIC_REPRESENTATION_CONTEXT() REPRESENTATION_CONTEXT('2D SPACE',''
  ) );
#77 = ORIENTED_EDGE('',*,*,#78,.T.);
#78 = EDGE_CURVE('',#56,#56,#79,.T.);
#79 = SURFACE_CURVE('',#80,(#85,#92),.PCURVE_S1.);
#80 = CIRCLE('',#81,7.362);
#81 = AXIS2_PLACEMENT_3D('',#82,#83,#84);
#82 = CARTESIAN_POINT('',(0.,0.,-4.));
#83 = DIRECTION('',(0.,0.,1.));
#84 = DIRECTION('',(1.,0.,0.));
#85 = PCURVE('',#31,#86);
#86 = DEFINITIONAL_REPRESENTATION('',(#87),#91);
#87 = LINE('',#88,#89);
#88 = CARTESIAN_POINT('',(0.,0.));
#89 = VECTOR('',#90,1.);
#90 = DIRECTION('',(1.,0.));
#91 = ( GEOMETRIC_REPRESENTATION_CONTEXT(2) 
PARAMETRIC_REPRESENTATION_CONTEXT() REPRESENTATION_CONTEXT('2D SPACE',''
  ) );
#92 = PCURVE('',#93,#98);
#93 = PLANE('',#94);
#94 = AXIS2_PLACEMENT_3D('',#95,#96,#97);
#95 = CARTESIAN_POINT('',(0.,0.,-4.));
#96 = DIRECTION('',(0.,0.,1.));
#97 = DIRECTION('',(1.,0.,0.));
#98 = DEFINITIONAL_REPRESENTATION('',(#99),#103);
#99 = CIRCLE('',#100,7.362);
#100 = AXIS2_PLACEMENT_2D('',#101,#102);
#101 = CARTESIAN_POINT('',(0.,0.));
#102 = DIRECTION('',(1.,0.));
#103 = ( GEOMETRIC_REPRESENTATION_CONTEXT(2) 
PARAMETRIC_REPRESENTATION_CONTEXT() REPRESENTATION_CONTEXT('2D SPACE',''
  ) );
#104 = ORIENTED_EDGE('',*,*,#55,.T.);
#105 = ADVANCED_FACE('',(#106,#109),#43,.T.);
#106 = FACE_BOUND('',#107,.T.);
#107 = EDGE_LOOP('',(#108));
#108 = ORIENTED_EDGE('',*,*,#21,.T.);
#109 = FACE_BOUND('',#110,.T.);
#110 = EDGE_LOOP('',(#111));
#111 = ORIENTED_EDGE('',*,*,#112,.F.);
#112 = EDGE_CURVE('',#113,#113,#115,.T.);
#113 = VERTEX_POINT('',#114);
#114 = CARTESIAN_POINT('',(6.112,-1.497008247278E-15,-3.));
#115 = SURFACE_CURVE('',#116,(#121,#128),.PCURVE_S1.);
#116 = CIRCLE('',#117,6.112);
#117 = AXIS2_PLACEMENT_3D('',#118,#119,#120);
#118 = CARTESIAN_POINT('',(0.,0.,-3.));
#119 = DIRECTION('',(0.,0.,1.));
#120 = DIRECTION('',(1.,0.,0.));
#121 = PCURVE('',#43,#122);
#122 = DEFINITIONAL_REPRESENTATION('',(#123),#127);
#123 = CIRCLE('',#124,6.112);
#124 = AXIS2_PLACEMENT_2D('',#125,#126);
#125 = CARTESIAN_POINT('',(0.,0.));
#126 = DIRECTION('',(1.,0.));
#127 = ( GEOMETRIC_REPRESENTATION_CONTEXT(2) 
PARAMETRIC_REPRESENTATION_CONTEXT() REPRESENTATION_CONTEXT('2D SPACE',''
  ) );
#128 = PCURVE('',#129,#134);
#129 = CYLINDRICAL_SURFACE('',#130,6.112);
#130 = AXIS2_PLACEMENT_3D('',#131,#132,#133);
#131 = CARTESIAN_POINT('',(0.,0.,-3.));
#132 = DIRECTION('',(0.,0.,1.));
#133 = DIRECTION('',(1.,0.,0.));
#134 = DEFINITIONAL_REPRESENTATION('',(#135),#139);
#135 = LINE('',#136,#137);
#136 = CARTESIAN_POINT('',(0.,0.));
#137 = VECTOR('',#138,1.);
#138 = DIRECTION('',(1.,0.));
#139 = ( GEOMETRIC_REPRESENTATION_CONTEXT(2) 
PARAMETRIC_REPRESENTATION_CONTEXT() REPRESENTATION_CONTEXT('2D SPACE',''
  ) );
#140 = ADVANCED_FACE('',(#141,#144),#93,.F.);
#141 = FACE_BOUND('',#142,.F.);
#142 = EDGE_LOOP('',(#143));
#143 = ORIENTED_EDGE('',*,*,#78,.T.);
#144 = FACE_BOUND('',#145,.F.);
#145 = EDGE_LOOP('',(#146));
#146 = ORIENTED_EDGE('',*,*,#147,.F.);
#147 = EDGE_CURVE('',#148,#148,#150,.T.);
#148 = VERTEX_POINT('',#149);
#149 = CARTESIAN_POINT('',(2.5,-6.123233995737E-16,-4.));
#150 = SURFACE_CURVE('',#151,(#156,#163),.PCURVE_S1.);
#151 = CIRCLE('',#152,2.5);
#152 = AXIS2_PLACEMENT_3D('',#153,#154,#155);
#153 = CARTESIAN_POINT('',(0.,0.,-4.));
#154 = DIRECTION('',(0.,0.,1.));
#155 = DIRECTION('',(1.,0.,-0.));
#156 = PCURVE('',#93,#157);
#157 = DEFINITIONAL_REPRESENTATION('',(#158),#162);
#158 = CIRCLE('',#159,2.5);
#159 = AXIS2_PLACEMENT_2D('',#160,#161);
#160 = CARTESIAN_POINT('',(0.,0.));
#161 = DIRECTION('',(1.,0.));
#162 = ( GEOMETRIC_REPRESENTATION_CONTEXT(2) 
PARAMETRIC_REPRESENTATION_CONTEXT() REPRESENTATION_CONTEXT('2D SPACE',''
  ) );
#163 = PCURVE('',#164,#169);
#164 = CYLINDRICAL_SURFACE('',#165,2.5);
#165 = AXIS2_PLACEMENT_3D('',#166,#167,#168);
#166 = CARTESIAN_POINT('',(0.,0.,-4.05));
#167 = DIRECTION('',(0.,0.,1.));
#168 = DIRECTION('',(1.,0.,0.));
#169 = DEFINITIONAL_REPRESENTATION('',(#170),#174);
#170 = LINE('',#171,#172);
#171 = CARTESIAN_POINT('',(0.,5.E-02));
#172 = VECTOR('',#173,1.);
#173 = DIRECTION('',(1.,0.));
#174 = ( GEOMETRIC_REPRESENTATION_CONTEXT(2) 
PARAMETRIC_REPRESENTATION_CONTEXT() REPRESENTATION_CONTEXT('2D SPACE',''
  ) );
#175 = ADVANCED_FACE('',(#176,#230),#129,.T.);
#176 = FACE_BOUND('',#177,.T.);
#177 = EDGE_LOOP('',(#178,#201,#228,#229));
#178 = ORIENTED_EDGE('',*,*,#179,.T.);
#179 = EDGE_CURVE('',#113,#180,#182,.T.);
#180 = VERTEX_POINT('',#181);
#181 = CARTESIAN_POINT('',(6.112,-1.497008247278E-15,3.));
#182 = SEAM_CURVE('',#183,(#187,#194),.PCURVE_S1.);
#183 = LINE('',#184,#185);
#184 = CARTESIAN_POINT('',(6.112,-1.497008247278E-15,-3.));
#185 = VECTOR('',#186,1.);
#186 = DIRECTION('',(0.,0.,1.));
#187 = PCURVE('',#129,#188);
#188 = DEFINITIONAL_REPRESENTATION('',(#189),#193);
#189 = LINE('',#190,#191);
#190 = CARTESIAN_POINT('',(6.28318530718,-0.));
#191 = VECTOR('',#192,1.);
#192 = DIRECTION('',(0.,1.));
#193 = ( GEOMETRIC_REPRESENTATION_CONTEXT(2) 
PARAMETRIC_REPRESENTATION_CONTEXT() REPRESENTATION_CONTEXT('2D SPACE',''
  ) );
#194 = PCURVE('',#129,#195);
#195 = DEFINITIONAL_REPRESENTATION('',(#196),#200);
#196 = LINE('',#197,#198);
#197 = CARTESIAN_POINT('',(0.,-0.));
#198 = VECTOR('',#199,1.);
#199 = DIRECTION('',(0.,1.));
#200 = ( GEOMETRIC_REPRESENTATION_CONTEXT(2) 
PARAMETRIC_REPRESENTATION_CONTEXT() REPRESENTATION_CONTEXT('2D SPACE',''
  ) );
#201 = ORIENTED_EDGE('',*,*,#202,.F.);
#202 = EDGE_CURVE('',#180,#180,#203,.T.);
#203 = SURFACE_CURVE('',#204,(#209,#216),.PCURVE_S1.);
#204 = CIRCLE('',#205,6.112);
#205 = AXIS2_PLACEMENT_3D('',#206,#207,#208);
#206 = CARTESIAN_POINT('',(0.,0.,3.));
#207 = DIRECTION('',(0.,0.,1.));
#208 = DIRECTION('',(1.,0.,0.));
#209 = PCURVE('',#129,#210);
#210 = DEFINITIONAL_REPRESENTATION('',(#211),#215);
#211 = LINE('',#212,#213);
#212 = CARTESIAN_POINT('',(0.,6.));
#213 = VECTOR('',#214,1.);
#214 = DIRECTION('',(1.,0.));
#215 = ( GEOMETRIC_REPRESENTATION_CONTEXT(2) 
PARAMETRIC_REPRESENTATION_CONTEXT() REPRESENTATION_CONTEXT('2D SPACE',''
  ) );
#216 = PCURVE('',#217,#222);
#217 = PLANE('',#218);
#218 = AXIS2_PLACEMENT_3D('',#219,#220,#221);
#219 = CARTESIAN_POINT('',(0.,0.,3.));
#220 = DIRECTION('',(0.,0.,1.));
#221 = DIRECTION('',(1.,0.,0.));
#222 = DEFINITIONAL_REPRESENTATION('',(#223),#227);
#223 = CIRCLE('',#224,6.112);
#224 = AXIS2_PLACEMENT_2D('',#225,#226);
#225 = CARTESIAN_POINT('',(0.,0.));
#226 = DIRECTION('',(1.,0.));
#227 = ( GEOMETRIC_REPRESENTATION_CONTEXT(2) 
PARAMETRIC_REPRESENTATION_CONTEXT() REPRESENTATION_CONTEXT('2D SPACE',''
  ) );
#228 = ORIENTED_EDGE('',*,*,#179,.F.);
#229 = ORIENTED_EDGE('',*,*,#112,.T.);
#230 = FACE_BOUND('',#231,.T.);
#231 = EDGE_LOOP('',(#232));
#232 = ORIENTED_EDGE('',*,*,#233,.T.);
#233 = EDGE_CURVE('',#234,#234,#236,.T.);
#234 = VERTEX_POINT('',#235);
#235 = CARTESIAN_POINT('',(1.5,5.925077552235,-3.673940397442E-16));
#236 = SURFACE_CURVE('',#237,(#289,#362),.PCURVE_S1.);
#237 = B_SPLINE_CURVE_WITH_KNOTS('',8,(#238,#239,#240,#241,#242,#243,
    #244,#245,#246,#247,#248,#249,#250,#251,#252,#253,#254,#255,#256,
    #257,#258,#259,#260,#261,#262,#263,#264,#265,#266,#267,#268,#269,
    #270,#271,#272,#273,#274,#275,#276,#277,#278,#279,#280,#281,#282,
    #283,#284,#285,#286,#287,#288),.UNSPECIFIED.,.T.,.F.,(9,7,7,7,7,7,7,
    9),(0.,0.152231449501,0.286984490109,0.42401494747,0.576917585333,
    0.705297838975,0.829240042557,1.),.UNSPECIFIED.);
#238 = CARTESIAN_POINT('',(1.5,5.925077552235,-4.440892098501E-16));
#239 = CARTESIAN_POINT('',(1.5,5.925077552235,0.158014945446));
#240 = CARTESIAN_POINT('',(1.480976707787,5.929893466069,0.315872615594)
  );
#241 = CARTESIAN_POINT('',(1.442993355994,5.939509543892,0.47208374575)
  );
#242 = CARTESIAN_POINT('',(1.385777374919,5.953630298096,0.624989003826)
  );
#243 = CARTESIAN_POINT('',(1.308885012319,5.971646397124,0.772602208391)
  );
#244 = CARTESIAN_POINT('',(1.211830548222,5.992549604339,0.912472258104)
  );
#245 = CARTESIAN_POINT('',(1.094245846459,6.014875132694,1.041515450004)
  );
#246 = CARTESIAN_POINT('',(0.833883165765,6.056112907472,1.256906191521)
  );
#247 = CARTESIAN_POINT('',(0.691460601595,6.075770044268,1.349835939333)
  );
#248 = CARTESIAN_POINT('',(0.531082439885,6.093733856881,1.427060826584)
  );
#249 = CARTESIAN_POINT('',(0.356665473865,6.107693035178,1.483102426895)
  );
#250 = CARTESIAN_POINT('',(0.173334409483,6.11567199688,1.514414095924)
  );
#251 = CARTESIAN_POINT('',(-1.320738893361E-02,6.116789492712,
    1.519316122919));
#252 = CARTESIAN_POINT('',(-0.197123559011,6.111362105115,1.498041079571
    ));
#253 = CARTESIAN_POINT('',(-0.551919120944,6.089667357004,1.406945062415
    ));
#254 = CARTESIAN_POINT('',(-0.717190927596,6.073544088941,1.337680212212
    ));
#255 = CARTESIAN_POINT('',(-0.866842234322,6.053919955458,1.249345054329
    ));
#256 = CARTESIAN_POINT('',(-0.999717558836,6.032620912913,1.145635380343
    ));
#257 = CARTESIAN_POINT('',(-1.115216220662,6.011322274252,1.029852269836
    ));
#258 = CARTESIAN_POINT('',(-1.213146527265,5.99140100151,0.904990045496)
  );
#259 = CARTESIAN_POINT('',(-1.293665852176,5.973878476373,0.773772108287
    ));
#260 = CARTESIAN_POINT('',(-1.428179139176,5.943243360789,0.487916822686
    ));
#261 = CARTESIAN_POINT('',(-1.479361374359,5.930571686523,0.32947698185)
  );
#262 = CARTESIAN_POINT('',(-1.510260120929,5.922482441771,0.165988981938
    ));
#263 = CARTESIAN_POINT('',(-1.520589737848,5.919701626727,
    2.028203993643E-13));
#264 = CARTESIAN_POINT('',(-1.510260120929,5.922482441771,
    -0.165988981938));
#265 = CARTESIAN_POINT('',(-1.479361374359,5.930571686523,-0.32947698185
    ));
#266 = CARTESIAN_POINT('',(-1.428179139176,5.943243360789,
    -0.487916822686));
#267 = CARTESIAN_POINT('',(-1.29767907921,5.972964472435,-0.765243566718
    ));
#268 = CARTESIAN_POINT('',(-1.223365861015,5.989173375663,
    -0.888150550719));
#269 = CARTESIAN_POINT('',(-1.133955515449,6.007491954343,
    -1.005526864079));
#270 = CARTESIAN_POINT('',(-1.029272327495,6.027118616412,
    -1.115284465429));
#271 = CARTESIAN_POINT('',(-0.909356129062,6.046988825678,
    -1.215085786503));
#272 = CARTESIAN_POINT('',(-0.774521829298,6.065797465687,
    -1.302306746431));
#273 = CARTESIAN_POINT('',(-0.625474949679,6.082080600825,
    -1.373964205707));
#274 = CARTESIAN_POINT('',(-0.307174556442,6.106289775214,
    -1.477386272788));
#275 = CARTESIAN_POINT('',(-0.140821421738,6.114330582269,-1.50978642574
    ));
#276 = CARTESIAN_POINT('',(3.113741552707E-02,6.117195406985,
    -1.520593305496));
#277 = CARTESIAN_POINT('',(0.203688439856,6.114124003196,-1.508501840424
    ));
#278 = CARTESIAN_POINT('',(0.371665169536,6.105343037959,-1.473966262021
    ));
#279 = CARTESIAN_POINT('',(0.530205082777,6.092035971361,-1.419168876695
    ));
#280 = CARTESIAN_POINT('',(0.675199960987,6.075974189635,-1.348065999662
    ));
#281 = CARTESIAN_POINT('',(0.980835030409,6.035430482949,-1.1541040866)
  );
#282 = CARTESIAN_POINT('',(1.131638124929,6.009405874954,-1.018702858304
    ));
#283 = CARTESIAN_POINT('',(1.255907041626,5.983916997456,-0.866976355036
    ));
#284 = CARTESIAN_POINT('',(1.354221519799,5.961393253879,-0.703722629694
    ));
#285 = CARTESIAN_POINT('',(1.427289820148,5.943484302077,-0.53265363625)
  );
#286 = CARTESIAN_POINT('',(1.475749766128,5.931216905617,-0.356725282116
    ));
#287 = CARTESIAN_POINT('',(1.5,5.925077552235,-0.17840516472));
#288 = CARTESIAN_POINT('',(1.5,5.925077552235,-4.440892098501E-16));
#289 = PCURVE('',#129,#290);
#290 = DEFINITIONAL_REPRESENTATION('',(#291),#361);
#291 = B_SPLINE_CURVE_WITH_KNOTS('',3,(#292,#293,#294,#295,#296,#297,
    #298,#299,#300,#301,#302,#303,#304,#305,#306,#307,#308,#309,#310,
    #311,#312,#313,#314,#315,#316,#317,#318,#319,#320,#321,#322,#323,
    #324,#325,#326,#327,#328,#329,#330,#331,#332,#333,#334,#335,#336,
    #337,#338,#339,#340,#341,#342,#343,#344,#345,#346,#347,#348,#349,
    #350,#351,#352,#353,#354,#355,#356,#357,#358,#359,#360),
  .UNSPECIFIED.,.T.,.F.,(4,1,1,1,1,1,1,1,1,1,1,1,1,1,1,1,1,1,1,1,1,1,1,1
    ,1,1,1,1,1,1,1,1,1,1,1,1,1,1,1,1,1,1,1,1,1,1,1,1,1,1,1,1,1,1,1,1,1,1
    ,1,1,1,1,1,1,1,1,4),(0.,1.515151515152E-02,3.030303030303E-02,
    4.545454545455E-02,6.060606060606E-02,7.575757575758E-02,
    9.090909090909E-02,0.106060606061,0.121212121212,0.136363636364,
    0.151515151515,0.166666666667,0.181818181818,0.19696969697,
    0.212121212121,0.227272727273,0.242424242424,0.257575757576,
    0.272727272727,0.287878787879,0.30303030303,0.318181818182,
    0.333333333333,0.348484848485,0.363636363636,0.378787878788,
    0.393939393939,0.409090909091,0.424242424242,0.439393939394,
    0.454545454545,0.469696969697,0.484848484848,0.5,0.515151515152,
    0.530303030303,0.545454545455,0.560606060606,0.575757575758,
    0.590909090909,0.606060606061,0.621212121212,0.636363636364,
    0.651515151515,0.666666666667,0.681818181818,0.69696969697,
    0.712121212121,0.727272727273,0.742424242424,0.757575757576,
    0.772727272727,0.787878787879,0.80303030303,0.818181818182,
    0.833333333333,0.848484848485,0.863636363636,0.878787878788,
    0.893939393939,0.909090909091,0.924242424242,0.939393939394,
    0.954545454545,0.969696969697,0.984848484848,1.),
  .QUASI_UNIFORM_KNOTS.);
#292 = CARTESIAN_POINT('',(1.32284459602,3.));
#293 = CARTESIAN_POINT('',(1.322845002811,3.0419357024));
#294 = CARTESIAN_POINT('',(1.323437919161,3.125790464527));
#295 = CARTESIAN_POINT('',(1.326108698161,3.250970079499));
#296 = CARTESIAN_POINT('',(1.330564444355,3.375012671254));
#297 = CARTESIAN_POINT('',(1.336814087532,3.497320376586));
#298 = CARTESIAN_POINT('',(1.344868289935,3.617241875352));
#299 = CARTESIAN_POINT('',(1.354738050476,3.734054207885));
#300 = CARTESIAN_POINT('',(1.366435354899,3.846964390169));
#301 = CARTESIAN_POINT('',(1.379963717045,3.955057607776));
#302 = CARTESIAN_POINT('',(1.395347254618,4.05743584191));
#303 = CARTESIAN_POINT('',(1.412515684675,4.152643602129));
#304 = CARTESIAN_POINT('',(1.431726821939,4.240749083041));
#305 = CARTESIAN_POINT('',(1.453120513392,4.320207904781));
#306 = CARTESIAN_POINT('',(1.476320742683,4.387740432157));
#307 = CARTESIAN_POINT('',(1.501025295954,4.441195052661));
#308 = CARTESIAN_POINT('',(1.526863948173,4.478775323947));
#309 = CARTESIAN_POINT('',(1.553446066948,4.499248011928));
#310 = CARTESIAN_POINT('',(1.580371828959,4.501864303803));
#311 = CARTESIAN_POINT('',(1.607192776234,4.486466941362));
#312 = CARTESIAN_POINT('',(1.633606310358,4.45316199359));
#313 = CARTESIAN_POINT('',(1.658756783503,4.403578982219));
#314 = CARTESIAN_POINT('',(1.68222378231,4.340119557214));
#315 = CARTESIAN_POINT('',(1.703986956671,4.264373869056));
#316 = CARTESIAN_POINT('',(1.723945835816,4.178006424788));
#317 = CARTESIAN_POINT('',(1.742045149068,4.082536983043));
#318 = CARTESIAN_POINT('',(1.758239711042,3.979404267432));
#319 = CARTESIAN_POINT('',(1.772500083629,3.869989395003));
#320 = CARTESIAN_POINT('',(1.784819040823,3.755505329453));
#321 = CARTESIAN_POINT('',(1.795176566254,3.637451899492));
#322 = CARTESIAN_POINT('',(1.803671687245,3.515932526311));
#323 = CARTESIAN_POINT('',(1.810342770072,3.390855322984));
#324 = CARTESIAN_POINT('',(1.815141757916,3.263317709286));
#325 = CARTESIAN_POINT('',(1.818053643198,3.134086315344));
#326 = CARTESIAN_POINT('',(1.819064615694,3.004007687689));
#327 = CARTESIAN_POINT('',(1.818170826706,2.87390335734));
#328 = CARTESIAN_POINT('',(1.815375722738,2.744596657365));
#329 = CARTESIAN_POINT('',(1.810692139863,2.616928180506));
#330 = CARTESIAN_POINT('',(1.804136421571,2.491684927056));
#331 = CARTESIAN_POINT('',(1.795749334569,2.369886051692));
#332 = CARTESIAN_POINT('',(1.785517474396,2.251728524204));
#333 = CARTESIAN_POINT('',(1.773342951211,2.137182076086));
#334 = CARTESIAN_POINT('',(1.759242819544,2.027669854779));
#335 = CARTESIAN_POINT('',(1.743219140151,1.924335036284));
#336 = CARTESIAN_POINT('',(1.725293669978,1.828505855714));
#337 = CARTESIAN_POINT('',(1.705501891833,1.741582881709));
#338 = CARTESIAN_POINT('',(1.683888515819,1.665072286314));
#339 = CARTESIAN_POINT('',(1.660540124994,1.600623955413));
#340 = CARTESIAN_POINT('',(1.635471050047,1.549917088939));
#341 = CARTESIAN_POINT('',(1.609262048958,1.515495422293));
#342 = CARTESIAN_POINT('',(1.58238503702,1.498633417727));
#343 = CARTESIAN_POINT('',(1.555307391822,1.49995204187));
#344 = CARTESIAN_POINT('',(1.52850431876,1.519393122361));
#345 = CARTESIAN_POINT('',(1.502439609553,1.556247146364));
#346 = CARTESIAN_POINT('',(1.477568106974,1.609102015974));
#347 = CARTESIAN_POINT('',(1.454281298637,1.676022173489));
#348 = CARTESIAN_POINT('',(1.433054057473,1.753854821064));
#349 = CARTESIAN_POINT('',(1.41375235527,1.841112533283));
#350 = CARTESIAN_POINT('',(1.396302486435,1.936735514589));
#351 = CARTESIAN_POINT('',(1.380727701841,2.039362713949));
#352 = CARTESIAN_POINT('',(1.36701816913,2.147897396647));
#353 = CARTESIAN_POINT('',(1.355167977119,2.261330134954));
#354 = CARTESIAN_POINT('',(1.345166991434,2.378764149326));
#355 = CARTESIAN_POINT('',(1.337004553519,2.499389211044));
#356 = CARTESIAN_POINT('',(1.33066980041,2.622471033966));
#357 = CARTESIAN_POINT('',(1.326152959854,2.747339206017));
#358 = CARTESIAN_POINT('',(1.323445800565,2.87337177157));
#359 = CARTESIAN_POINT('',(1.322844916201,2.957789577242));
#360 = CARTESIAN_POINT('',(1.32284459602,3.));
#361 = ( GEOMETRIC_REPRESENTATION_CONTEXT(2) 
PARAMETRIC_REPRESENTATION_CONTEXT() REPRESENTATION_CONTEXT('2D SPACE',''
  ) );
#362 = PCURVE('',#363,#368);
#363 = CYLINDRICAL_SURFACE('',#364,1.5);
#364 = AXIS2_PLACEMENT_3D('',#365,#366,#367);
#365 = CARTESIAN_POINT('',(0.,6.112,0.));
#366 = DIRECTION('',(0.,-1.,0.));
#367 = DIRECTION('',(1.,0.,0.));
#368 = DEFINITIONAL_REPRESENTATION('',(#369),#439);
#369 = B_SPLINE_CURVE_WITH_KNOTS('',3,(#370,#371,#372,#373,#374,#375,
    #376,#377,#378,#379,#380,#381,#382,#383,#384,#385,#386,#387,#388,
    #389,#390,#391,#392,#393,#394,#395,#396,#397,#398,#399,#400,#401,
    #402,#403,#404,#405,#406,#407,#408,#409,#410,#411,#412,#413,#414,
    #415,#416,#417,#418,#419,#420,#421,#422,#423,#424,#425,#426,#427,
    #428,#429,#430,#431,#432,#433,#434,#435,#436,#437,#438),
  .UNSPECIFIED.,.F.,.F.,(4,1,1,1,1,1,1,1,1,1,1,1,1,1,1,1,1,1,1,1,1,1,1,1
    ,1,1,1,1,1,1,1,1,1,1,1,1,1,1,1,1,1,1,1,1,1,1,1,1,1,1,1,1,1,1,1,1,1,1
    ,1,1,1,1,1,1,1,1,4),(0.,1.515151515152E-02,3.030303030303E-02,
    4.545454545455E-02,6.060606060606E-02,7.575757575758E-02,
    9.090909090909E-02,0.106060606061,0.121212121212,0.136363636364,
    0.151515151515,0.166666666667,0.181818181818,0.19696969697,
    0.212121212121,0.227272727273,0.242424242424,0.257575757576,
    0.272727272727,0.287878787879,0.30303030303,0.318181818182,
    0.333333333333,0.348484848485,0.363636363636,0.378787878788,
    0.393939393939,0.409090909091,0.424242424242,0.439393939394,
    0.454545454545,0.469696969697,0.484848484848,0.5,0.515151515152,
    0.530303030303,0.545454545455,0.560606060606,0.575757575758,
    0.590909090909,0.606060606061,0.621212121212,0.636363636364,
    0.651515151515,0.666666666667,0.681818181818,0.69696969697,
    0.712121212121,0.727272727273,0.742424242424,0.757575757576,
    0.772727272727,0.787878787879,0.80303030303,0.818181818182,
    0.833333333333,0.848484848485,0.863636363636,0.878787878788,
    0.893939393939,0.909090909091,0.924242424242,0.939393939394,
    0.954545454545,0.969696969697,0.984848484848,1.),
  .QUASI_UNIFORM_KNOTS.);
#370 = CARTESIAN_POINT('',(0.,0.186922447765));
#371 = CARTESIAN_POINT('',(2.795822771389E-02,0.186926573181));
#372 = CARTESIAN_POINT('',(8.385977591058E-02,0.18602870759));
#373 = CARTESIAN_POINT('',(0.167903812083,0.182046441804));
#374 = CARTESIAN_POINT('',(0.252380183989,0.1754913894));
#375 = CARTESIAN_POINT('',(0.337514861489,0.166496934987));
#376 = CARTESIAN_POINT('',(0.42353085403,0.155247341423));
#377 = CARTESIAN_POINT('',(0.51064749217,0.141988442591));
#378 = CARTESIAN_POINT('',(0.599096070466,0.12702748167));
#379 = CARTESIAN_POINT('',(0.689081536717,0.110744503122));
#380 = CARTESIAN_POINT('',(0.780944777409,9.356520398847E-02));
#381 = CARTESIAN_POINT('',(0.874580040932,7.607137954296E-02));
#382 = CARTESIAN_POINT('',(0.971637704879,5.859268311327E-02));
#383 = CARTESIAN_POINT('',(1.072899059075,4.176419742349E-02));
#384 = CARTESIAN_POINT('',(1.176985141016,2.667250022145E-02));
#385 = CARTESIAN_POINT('',(1.28330354368,1.421836276484E-02));
#386 = CARTESIAN_POINT('',(1.391211249569,5.194871055977E-03));
#387 = CARTESIAN_POINT('',(1.500177120253,1.866244527847E-04));
#388 = CARTESIAN_POINT('',(1.609749795432,-4.581762652706E-04));
#389 = CARTESIAN_POINT('',(1.719332001182,3.321194998387E-03));
#390 = CARTESIAN_POINT('',(1.828938920361,1.136988496718E-02));
#391 = CARTESIAN_POINT('',(1.93618967674,2.302898044814E-02));
#392 = CARTESIAN_POINT('',(2.040177175955,3.738679895504E-02));
#393 = CARTESIAN_POINT('',(2.141518800965,5.369301606857E-02));
#394 = CARTESIAN_POINT('',(2.240362518396,7.117362354875E-02));
#395 = CARTESIAN_POINT('',(2.336931011377,8.910720437586E-02));
#396 = CARTESIAN_POINT('',(2.431389707528,0.10682712274));
#397 = CARTESIAN_POINT('',(2.523865852931,0.123734856008));
#398 = CARTESIAN_POINT('',(2.61453021152,0.139321615893));
#399 = CARTESIAN_POINT('',(2.703271417303,0.153127096235));
#400 = CARTESIAN_POINT('',(2.790933617308,0.164925617117));
#401 = CARTESIAN_POINT('',(2.87832180295,0.174491912451));
#402 = CARTESIAN_POINT('',(2.96535734802,0.18153743839));
#403 = CARTESIAN_POINT('',(3.052194831103,0.185879038655));
#404 = CARTESIAN_POINT('',(3.138924198897,0.187398172894));
#405 = CARTESIAN_POINT('',(3.225650660189,0.186054814956));
#406 = CARTESIAN_POINT('',(3.312477978246,0.181884412383));
#407 = CARTESIAN_POINT('',(3.399500286936,0.175000235057));
#408 = CARTESIAN_POINT('',(3.48685640921,0.165583409903));
#409 = CARTESIAN_POINT('',(3.574525784501,0.15390912616));
#410 = CARTESIAN_POINT('',(3.663095782933,0.140232776214));
#411 = CARTESIAN_POINT('',(3.753481676609,0.124773104644));
#412 = CARTESIAN_POINT('',(3.845610951271,0.107977740326));
#413 = CARTESIAN_POINT('',(3.939691676443,9.034014618537E-02));
#414 = CARTESIAN_POINT('',(4.035884098518,7.244248768013E-02));
#415 = CARTESIAN_POINT('',(4.134385218999,5.493631027429E-02));
#416 = CARTESIAN_POINT('',(4.23544433256,3.853338976965E-02));
#417 = CARTESIAN_POINT('',(4.33924776048,2.399966801096E-02));
#418 = CARTESIAN_POINT('',(4.446406125846,1.210506120665E-02));
#419 = CARTESIAN_POINT('',(4.555342645365,3.80013264023E-03));
#420 = CARTESIAN_POINT('',(4.665242303001,-3.354363331947E-04));
#421 = CARTESIAN_POINT('',(4.775420557699,-1.03689993113E-05));
#422 = CARTESIAN_POINT('',(4.885198612772,4.749895531857E-03));
#423 = CARTESIAN_POINT('',(4.993896645341,1.36115939811E-02));
#424 = CARTESIAN_POINT('',(5.10072888803,2.595030106929E-02));
#425 = CARTESIAN_POINT('',(5.204967639319,4.093872240593E-02));
#426 = CARTESIAN_POINT('',(5.305105326944,5.747741418179E-02));
#427 = CARTESIAN_POINT('',(5.402128307019,7.487555315833E-02));
#428 = CARTESIAN_POINT('',(5.49679111688,9.254055009303E-02));
#429 = CARTESIAN_POINT('',(5.589295971984,0.109855550359));
#430 = CARTESIAN_POINT('',(5.679954956905,0.126301198484));
#431 = CARTESIAN_POINT('',(5.769021630659,0.141422662199));
#432 = CARTESIAN_POINT('',(5.856743379698,0.154836473635));
#433 = CARTESIAN_POINT('',(5.943353518186,0.166225771626));
#434 = CARTESIAN_POINT('',(6.029078745952,0.17533744768));
#435 = CARTESIAN_POINT('',(6.114142316028,0.181980598848));
#436 = CARTESIAN_POINT('',(6.198767065377,0.186016770643));
#437 = CARTESIAN_POINT('',(6.255043897109,0.186926826356));
#438 = CARTESIAN_POINT('',(6.28318530718,0.186922447765));
#439 = ( GEOMETRIC_REPRESENTATION_CONTEXT(2) 
PARAMETRIC_REPRESENTATION_CONTEXT() REPRESENTATION_CONTEXT('2D SPACE',''
  ) );
#440 = ADVANCED_FACE('',(#441,#495),#164,.F.);
#441 = FACE_BOUND('',#442,.F.);
#442 = EDGE_LOOP('',(#443,#466,#493,#494));
#443 = ORIENTED_EDGE('',*,*,#444,.T.);
#444 = EDGE_CURVE('',#148,#445,#447,.T.);
#445 = VERTEX_POINT('',#446);
#446 = CARTESIAN_POINT('',(2.5,-6.123233995737E-16,4.));
#447 = SEAM_CURVE('',#448,(#452,#459),.PCURVE_S1.);
#448 = LINE('',#449,#450);
#449 = CARTESIAN_POINT('',(2.5,-6.123233995737E-16,-4.05));
#450 = VECTOR('',#451,1.);
#451 = DIRECTION('',(0.,0.,1.));
#452 = PCURVE('',#164,#453);
#453 = DEFINITIONAL_REPRESENTATION('',(#454),#458);
#454 = LINE('',#455,#456);
#455 = CARTESIAN_POINT('',(6.28318530718,-0.));
#456 = VECTOR('',#457,1.);
#457 = DIRECTION('',(0.,1.));
#458 = ( GEOMETRIC_REPRESENTATION_CONTEXT(2) 
PARAMETRIC_REPRESENTATION_CONTEXT() REPRESENTATION_CONTEXT('2D SPACE',''
  ) );
#459 = PCURVE('',#164,#460);
#460 = DEFINITIONAL_REPRESENTATION('',(#461),#465);
#461 = LINE('',#462,#463);
#462 = CARTESIAN_POINT('',(0.,-0.));
#463 = VECTOR('',#464,1.);
#464 = DIRECTION('',(0.,1.));
#465 = ( GEOMETRIC_REPRESENTATION_CONTEXT(2) 
PARAMETRIC_REPRESENTATION_CONTEXT() REPRESENTATION_CONTEXT('2D SPACE',''
  ) );
#466 = ORIENTED_EDGE('',*,*,#467,.F.);
#467 = EDGE_CURVE('',#445,#445,#468,.T.);
#468 = SURFACE_CURVE('',#469,(#474,#481),.PCURVE_S1.);
#469 = CIRCLE('',#470,2.5);
#470 = AXIS2_PLACEMENT_3D('',#471,#472,#473);
#471 = CARTESIAN_POINT('',(0.,0.,4.));
#472 = DIRECTION('',(0.,0.,1.));
#473 = DIRECTION('',(1.,0.,-0.));
#474 = PCURVE('',#164,#475);
#475 = DEFINITIONAL_REPRESENTATION('',(#476),#480);
#476 = LINE('',#477,#478);
#477 = CARTESIAN_POINT('',(0.,8.05));
#478 = VECTOR('',#479,1.);
#479 = DIRECTION('',(1.,0.));
#480 = ( GEOMETRIC_REPRESENTATION_CONTEXT(2) 
PARAMETRIC_REPRESENTATION_CONTEXT() REPRESENTATION_CONTEXT('2D SPACE',''
  ) );
#481 = PCURVE('',#482,#487);
#482 = PLANE('',#483);
#483 = AXIS2_PLACEMENT_3D('',#484,#485,#486);
#484 = CARTESIAN_POINT('',(0.,0.,4.));
#485 = DIRECTION('',(0.,0.,1.));
#486 = DIRECTION('',(1.,0.,0.));
#487 = DEFINITIONAL_REPRESENTATION('',(#488),#492);
#488 = CIRCLE('',#489,2.5);
#489 = AXIS2_PLACEMENT_2D('',#490,#491);
#490 = CARTESIAN_POINT('',(0.,0.));
#491 = DIRECTION('',(1.,0.));
#492 = ( GEOMETRIC_REPRESENTATION_CONTEXT(2) 
PARAMETRIC_REPRESENTATION_CONTEXT() REPRESENTATION_CONTEXT('2D SPACE',''
  ) );
#493 = ORIENTED_EDGE('',*,*,#444,.F.);
#494 = ORIENTED_EDGE('',*,*,#147,.T.);
#495 = FACE_BOUND('',#496,.F.);
#496 = EDGE_LOOP('',(#497));
#497 = ORIENTED_EDGE('',*,*,#498,.T.);
#498 = EDGE_CURVE('',#499,#499,#501,.T.);
#499 = VERTEX_POINT('',#500);
#500 = CARTESIAN_POINT('',(1.5,2.,-3.673940397442E-16));
#501 = SURFACE_CURVE('',#502,(#605,#711),.PCURVE_S1.);
#502 = B_SPLINE_CURVE_WITH_KNOTS('',6,(#503,#504,#505,#506,#507,#508,
    #509,#510,#511,#512,#513,#514,#515,#516,#517,#518,#519,#520,#521,
    #522,#523,#524,#525,#526,#527,#528,#529,#530,#531,#532,#533,#534,
    #535,#536,#537,#538,#539,#540,#541,#542,#543,#544,#545,#546,#547,
    #548,#549,#550,#551,#552,#553,#554,#555,#556,#557,#558,#559,#560,
    #561,#562,#563,#564,#565,#566,#567,#568,#569,#570,#571,#572,#573,
    #574,#575,#576,#577,#578,#579,#580,#581,#582,#583,#584,#585,#586,
    #587,#588,#589,#590,#591,#592,#593,#594,#595,#596,#597,#598,#599,
    #600,#601,#602,#603,#604),.UNSPECIFIED.,.T.,.F.,(7,5,5,5,5,5,5,5,5,5
    ,5,5,5,5,5,5,5,5,5,5,7),(0.,5.013641183858E-02,0.101174016978,
    0.145366544407,0.187481228994,0.249767357093,0.312057092471,
    0.353541590387,0.398336434967,0.449631222706,0.499529099377,
    0.549663299675,0.60069865352,0.662182233742,0.709673554211,
    0.749388509097,0.811890168887,0.853515806889,0.898463054151,
    0.949932358921,1.),.UNSPECIFIED.);
#503 = CARTESIAN_POINT('',(1.5,2.,-2.22044604925E-16));
#504 = CARTESIAN_POINT('',(1.5,2.,7.365261078913E-02));
#505 = CARTESIAN_POINT('',(1.495660255252,2.003254803949,0.147237878604)
  );
#506 = CARTESIAN_POINT('',(1.486995507538,2.009753385662,0.220453879203)
  );
#507 = CARTESIAN_POINT('',(1.474045484981,2.019355504832,0.292992107489)
  );
#508 = CARTESIAN_POINT('',(1.456879249393,2.031791332062,0.364521088288)
  );
#509 = CARTESIAN_POINT('',(1.41401566444,2.061857726079,0.50609026567));
#510 = CARTESIAN_POINT('',(1.388164221915,2.079582201161,0.576101690168)
  );
#511 = CARTESIAN_POINT('',(1.358157831465,2.099525272342,0.644555717092)
  );
#512 = CARTESIAN_POINT('',(1.324046265339,2.121303866567,0.711270872191)
  );
#513 = CARTESIAN_POINT('',(1.28587085685,2.144504978061,0.776035593136)
  );
#514 = CARTESIAN_POINT('',(1.207147879005,2.189650087455,0.892784356589)
  );
#515 = CARTESIAN_POINT('',(1.167583923608,2.211357512753,0.945349319929)
  );
#516 = CARTESIAN_POINT('',(1.124974545204,2.233566972893,0.996194261329)
  );
#517 = CARTESIAN_POINT('',(1.079294891583,2.256014960205,1.045178590404)
  );
#518 = CARTESIAN_POINT('',(1.030511800069,2.278426983652,1.092126147577)
  );
#519 = CARTESIAN_POINT('',(0.929102934538,2.321564008833,1.17941968491)
  );
#520 = CARTESIAN_POINT('',(0.876738865114,2.342330125238,1.219995219191)
  );
#521 = CARTESIAN_POINT('',(0.821492570215,2.362546701922,1.258327928787)
  );
#522 = CARTESIAN_POINT('',(0.763375912982,2.381933538724,1.294169284544)
  );
#523 = CARTESIAN_POINT('',(0.70241804288,2.40019928091,1.327242526676));
#524 = CARTESIAN_POINT('',(0.544386266296,2.441956892401,1.401606636033)
  );
#525 = CARTESIAN_POINT('',(0.443358100622,2.463930923697,1.439547219058)
  );
#526 = CARTESIAN_POINT('',(0.336846082529,2.481583631443,1.469304990554)
  );
#527 = CARTESIAN_POINT('',(0.226350636744,2.493815349305,1.489692528944)
  );
#528 = CARTESIAN_POINT('',(0.113509179747,2.5,1.5));
#529 = CARTESIAN_POINT('',(-0.113515753591,2.5,1.5));
#530 = CARTESIAN_POINT('',(-0.22635479295,2.493814628377,1.489691336802)
  );
#531 = CARTESIAN_POINT('',(-0.336843456342,2.481583336345,1.469304476964
    ));
#532 = CARTESIAN_POINT('',(-0.443349318923,2.463932297403,1.439549446363
    ));
#533 = CARTESIAN_POINT('',(-0.544376928013,2.441959359907,1.401611030296
    ));
#534 = CARTESIAN_POINT('',(-0.701466710383,2.400450656764,1.327690189769
    ));
#535 = CARTESIAN_POINT('',(-0.761557515834,2.382477966006,1.295154956653
    ));
#536 = CARTESIAN_POINT('',(-0.818892424855,2.363412738872,1.259928583912
    ));
#537 = CARTESIAN_POINT('',(-0.873442269424,2.343533940108,1.222276569262
    ));
#538 = CARTESIAN_POINT('',(-0.925194404242,2.323110187013,1.182438150683
    ));
#539 = CARTESIAN_POINT('',(-1.027011009977,2.280031350365,1.095482043758
    ));
#540 = CARTESIAN_POINT('',(-1.076641852325,2.257315403738,1.048011219949
    ));
#541 = CARTESIAN_POINT('',(-1.123082276666,2.234550337637,0.998439729122
    ));
#542 = CARTESIAN_POINT('',(-1.166367032287,2.212022413199,0.94695219771)
  );
#543 = CARTESIAN_POINT('',(-1.206522246243,2.190006191049,0.893695528626
    ));
#544 = CARTESIAN_POINT('',(-1.285977110618,2.144447101006,0.775897038208
    ));
#545 = CARTESIAN_POINT('',(-1.324336070541,2.121129686928,0.710795706026
    ));
#546 = CARTESIAN_POINT('',(-1.358589535253,2.099250690107,0.64372464906)
  );
#547 = CARTESIAN_POINT('',(-1.388695371779,2.079229573024,0.57489893877)
  );
#548 = CARTESIAN_POINT('',(-1.41460294486,2.061455096495,0.504502963578)
  );
#549 = CARTESIAN_POINT('',(-1.457282033545,2.031499482891,0.362838285478
    ));
#550 = CARTESIAN_POINT('',(-1.474288544103,2.019175277655,0.291627314249
    ));
#551 = CARTESIAN_POINT('',(-1.487117562421,2.009661843891,0.219420517399
    ));
#552 = CARTESIAN_POINT('',(-1.495701071848,2.003224191672,0.146545006799
    ));
#553 = CARTESIAN_POINT('',(-1.5,2.,7.330542559502E-02));
#554 = CARTESIAN_POINT('',(-1.5,2.,-7.365261078905E-02));
#555 = CARTESIAN_POINT('',(-1.495660255251,2.003254803949,
    -0.147237878605));
#556 = CARTESIAN_POINT('',(-1.486995507538,2.009753385662,
    -0.220453879203));
#557 = CARTESIAN_POINT('',(-1.474045484981,2.019355504832,
    -0.292992107489));
#558 = CARTESIAN_POINT('',(-1.456879249393,2.031791332062,
    -0.364521088288));
#559 = CARTESIAN_POINT('',(-1.41401566444,2.061857726079,-0.50609026567)
  );
#560 = CARTESIAN_POINT('',(-1.388164221915,2.079582201161,
    -0.576101690168));
#561 = CARTESIAN_POINT('',(-1.358157831465,2.099525272342,
    -0.644555717092));
#562 = CARTESIAN_POINT('',(-1.324046265339,2.121303866567,
    -0.711270872191));
#563 = CARTESIAN_POINT('',(-1.28587085685,2.144504978061,-0.776035593136
    ));
#564 = CARTESIAN_POINT('',(-1.192851808624,2.197848426478,-0.91398589882
    ));
#565 = CARTESIAN_POINT('',(-1.136150237735,2.228465274957,
    -0.986248323846));
#566 = CARTESIAN_POINT('',(-1.073546618222,2.259858891923,
    -1.055095744914));
#567 = CARTESIAN_POINT('',(-1.004951417864,2.291314981209,
    -1.120122591582));
#568 = CARTESIAN_POINT('',(-0.93026170963,2.322068802517,-1.180777765895
    ));
#569 = CARTESIAN_POINT('',(-0.786955723185,2.37383867591,-1.27923497306)
  );
#570 = CARTESIAN_POINT('',(-0.720729561268,2.395512851328,
    -1.319162363796));
#571 = CARTESIAN_POINT('',(-0.650851740524,2.415842830457,
    -1.355633732485));
#572 = CARTESIAN_POINT('',(-0.577489238355,2.434369404131,
    -1.388182508137));
#573 = CARTESIAN_POINT('',(-0.500856054238,2.450647105519,
    -1.416343491469));
#574 = CARTESIAN_POINT('',(-0.354614475264,2.475644116155,
    -1.459131215421));
#575 = CARTESIAN_POINT('',(-0.285922867009,2.485162671546,
    -1.475215210231));
#576 = CARTESIAN_POINT('',(-0.215609886311,2.49251891354,-1.487532463039
    ));
#577 = CARTESIAN_POINT('',(-0.14417395728,2.49750285106,-1.495837554071)
  );
#578 = CARTESIAN_POINT('',(-7.213045297973E-02,2.5,-1.5));
#579 = CARTESIAN_POINT('',(0.113515753591,2.5,-1.5));
#580 = CARTESIAN_POINT('',(0.22635479295,2.493814628377,-1.489691336802)
  );
#581 = CARTESIAN_POINT('',(0.336843456342,2.481583336345,-1.469304476964
    ));
#582 = CARTESIAN_POINT('',(0.443349318923,2.463932297403,-1.439549446363
    ));
#583 = CARTESIAN_POINT('',(0.544376928013,2.441959359907,-1.401611030296
    ));
#584 = CARTESIAN_POINT('',(0.701466710402,2.400450656759,-1.32769018976)
  );
#585 = CARTESIAN_POINT('',(0.761557515828,2.382477966006,-1.295154956653
    ));
#586 = CARTESIAN_POINT('',(0.818892424839,2.363412738878,-1.259928583922
    ));
#587 = CARTESIAN_POINT('',(0.873442269422,2.34353394011,-1.222276569266)
  );
#588 = CARTESIAN_POINT('',(0.925194404256,2.323110187007,-1.18243815067)
  );
#589 = CARTESIAN_POINT('',(1.027011009977,2.280031350365,-1.095482043758
    ));
#590 = CARTESIAN_POINT('',(1.076641852325,2.257315403738,-1.048011219949
    ));
#591 = CARTESIAN_POINT('',(1.123082276666,2.234550337637,-0.998439729122
    ));
#592 = CARTESIAN_POINT('',(1.166367032287,2.212022413199,-0.94695219771)
  );
#593 = CARTESIAN_POINT('',(1.206522246243,2.190006191049,-0.893695528626
    ));
#594 = CARTESIAN_POINT('',(1.285977110618,2.144447101006,-0.775897038208
    ));
#595 = CARTESIAN_POINT('',(1.324336070541,2.121129686928,-0.710795706026
    ));
#596 = CARTESIAN_POINT('',(1.358589535253,2.099250690107,-0.64372464906)
  );
#597 = CARTESIAN_POINT('',(1.388695371779,2.079229573024,-0.57489893877)
  );
#598 = CARTESIAN_POINT('',(1.41460294486,2.061455096495,-0.504502963578)
  );
#599 = CARTESIAN_POINT('',(1.457282033545,2.031499482891,-0.362838285477
    ));
#600 = CARTESIAN_POINT('',(1.474288544103,2.019175277655,-0.291627314248
    ));
#601 = CARTESIAN_POINT('',(1.487117562421,2.009661843891,-0.2194205174)
  );
#602 = CARTESIAN_POINT('',(1.495701071848,2.003224191672,-0.146545006799
    ));
#603 = CARTESIAN_POINT('',(1.5,2.,-7.330542559482E-02));
#604 = CARTESIAN_POINT('',(1.5,2.,-2.22044604925E-16));
#605 = PCURVE('',#164,#606);
#606 = DEFINITIONAL_REPRESENTATION('',(#607),#710);
#607 = B_SPLINE_CURVE_WITH_KNOTS('',6,(#608,#609,#610,#611,#612,#613,
    #614,#615,#616,#617,#618,#619,#620,#621,#622,#623,#624,#625,#626,
    #627,#628,#629,#630,#631,#632,#633,#634,#635,#636,#637,#638,#639,
    #640,#641,#642,#643,#644,#645,#646,#647,#648,#649,#650,#651,#652,
    #653,#654,#655,#656,#657,#658,#659,#660,#661,#662,#663,#664,#665,
    #666,#667,#668,#669,#670,#671,#672,#673,#674,#675,#676,#677,#678,
    #679,#680,#681,#682,#683,#684,#685,#686,#687,#688,#689,#690,#691,
    #692,#693,#694,#695,#696,#697,#698,#699,#700,#701,#702,#703,#704,
    #705,#706,#707,#708,#709),.UNSPECIFIED.,.T.,.F.,(7,5,5,5,5,5,5,5,5,5
    ,5,5,5,5,5,5,5,5,5,5,7),(0.,5.013641183858E-02,0.101174016978,
    0.145366544407,0.187481228994,0.249767357093,0.312057092471,
    0.353541590387,0.398336434967,0.449631222706,0.499529099377,
    0.549663299675,0.60069865352,0.662182233742,0.709673554211,
    0.749388509097,0.811890168887,0.853515806889,0.898463054151,
    0.949932358921,1.),.UNSPECIFIED.);
#608 = CARTESIAN_POINT('',(0.927295218002,4.05));
#609 = CARTESIAN_POINT('',(0.927295218002,4.123652610789));
#610 = CARTESIAN_POINT('',(0.929465082045,4.197237878604));
#611 = CARTESIAN_POINT('',(0.933797494709,4.270453879203));
#612 = CARTESIAN_POINT('',(0.940245928262,4.342992107489));
#613 = CARTESIAN_POINT('',(0.948723891428,4.414521088288));
#614 = CARTESIAN_POINT('',(0.969666765974,4.55609026567));
#615 = CARTESIAN_POINT('',(0.982203715898,4.626101690168));
#616 = CARTESIAN_POINT('',(0.996612974767,4.694555717092));
#617 = CARTESIAN_POINT('',(1.012796438534,4.761270872191));
#618 = CARTESIAN_POINT('',(1.030659736992,4.826035593136));
#619 = CARTESIAN_POINT('',(1.066959352732,4.942784356589));
#620 = CARTESIAN_POINT('',(1.085007253359,4.995349319929));
#621 = CARTESIAN_POINT('',(1.104220431988,5.046194261329));
#622 = CARTESIAN_POINT('',(1.124569743035,5.095178590404));
#623 = CARTESIAN_POINT('',(1.146035085367,5.142126147577));
#624 = CARTESIAN_POINT('',(1.190116030819,5.22941968491));
#625 = CARTESIAN_POINT('',(1.212641756253,5.269995219191));
#626 = CARTESIAN_POINT('',(1.23616023221,5.308327928787));
#627 = CARTESIAN_POINT('',(1.260649635589,5.344169284544));
#628 = CARTESIAN_POINT('',(1.286090210323,5.377242526676));
#629 = CARTESIAN_POINT('',(1.351472459324,5.451606636033));
#630 = CARTESIAN_POINT('',(1.392788321374,5.489547219058));
#631 = CARTESIAN_POINT('',(1.435889741114,5.519304990554));
#632 = CARTESIAN_POINT('',(1.480255987721,5.539692528944));
#633 = CARTESIAN_POINT('',(1.525392654896,5.55));
#634 = CARTESIAN_POINT('',(1.616202628231,5.55));
#635 = CARTESIAN_POINT('',(1.661338330391,5.539691336802));
#636 = CARTESIAN_POINT('',(1.705701887688,5.519304476964));
#637 = CARTESIAN_POINT('',(1.748800800136,5.489549446363));
#638 = CARTESIAN_POINT('',(1.790116330752,5.451611030296));
#639 = CARTESIAN_POINT('',(1.855108849905,5.377690189769));
#640 = CARTESIAN_POINT('',(1.88018416127,5.345154956653));
#641 = CARTESIAN_POINT('',(1.904336920457,5.309928583912));
#642 = CARTESIAN_POINT('',(1.927547864515,5.272276569262));
#643 = CARTESIAN_POINT('',(1.949795829903,5.232438150683));
#644 = CARTESIAN_POINT('',(1.994017828719,5.145482043758));
#645 = CARTESIAN_POINT('',(2.01584162158,5.098011219949));
#646 = CARTESIAN_POINT('',(2.036519514196,5.048439729122));
#647 = CARTESIAN_POINT('',(2.056030822808,4.99695219771));
#648 = CARTESIAN_POINT('',(2.074345350634,4.943695528626));
#649 = CARTESIAN_POINT('',(2.110981302721,4.825897038208));
#650 = CARTESIAN_POINT('',(2.128931409252,4.760795706026));
#651 = CARTESIAN_POINT('',(2.14518426101,4.69372464906));
#652 = CARTESIAN_POINT('',(2.159643910818,4.62489893877));
#653 = CARTESIAN_POINT('',(2.172210689056,4.554502963578));
#654 = CARTESIAN_POINT('',(2.193067700912,4.412838285478));
#655 = CARTESIAN_POINT('',(2.201467756821,4.341627314249));
#656 = CARTESIAN_POINT('',(2.207856187395,4.269420517399));
#657 = CARTESIAN_POINT('',(2.212147979549,4.196545006799));
#658 = CARTESIAN_POINT('',(2.214297435588,4.123305425595));
#659 = CARTESIAN_POINT('',(2.214297435588,3.976347389211));
#660 = CARTESIAN_POINT('',(2.212127571545,3.902762121395));
#661 = CARTESIAN_POINT('',(2.207795158881,3.829546120797));
#662 = CARTESIAN_POINT('',(2.201346725328,3.757007892511));
#663 = CARTESIAN_POINT('',(2.192868762162,3.685478911712));
#664 = CARTESIAN_POINT('',(2.171925887615,3.54390973433));
#665 = CARTESIAN_POINT('',(2.159388937691,3.473898309832));
#666 = CARTESIAN_POINT('',(2.144979678823,3.405444282908));
#667 = CARTESIAN_POINT('',(2.128796215056,3.338729127809));
#668 = CARTESIAN_POINT('',(2.110932916597,3.273964406864));
#669 = CARTESIAN_POINT('',(2.068041300966,3.13601410118));
#670 = CARTESIAN_POINT('',(2.042273971349,3.063751676154));
#671 = CARTESIAN_POINT('',(2.014280672173,2.994904255086));
#672 = CARTESIAN_POINT('',(1.984126864257,2.929877408418));
#673 = CARTESIAN_POINT('',(1.951848577681,2.869222234105));
#674 = CARTESIAN_POINT('',(1.890900435078,2.77076502694));
#675 = CARTESIAN_POINT('',(1.863040172021,2.730837636204));
#676 = CARTESIAN_POINT('',(1.833955307706,2.694366267515));
#677 = CARTESIAN_POINT('',(1.803720292602,2.661817491863));
#678 = CARTESIAN_POINT('',(1.772408280173,2.633656508531));
#679 = CARTESIAN_POINT('',(1.713063255159,2.590868784579));
#680 = CARTESIAN_POINT('',(1.685337877762,2.574784789769));
#681 = CARTESIAN_POINT('',(1.657083584556,2.562467536961));
#682 = CARTESIAN_POINT('',(1.628465864599,2.554162445929));
#683 = CARTESIAN_POINT('',(1.599648507987,2.55));
#684 = CARTESIAN_POINT('',(1.525390025359,2.55));
#685 = CARTESIAN_POINT('',(1.480254323199,2.560308663198));
#686 = CARTESIAN_POINT('',(1.435890765902,2.580695523036));
#687 = CARTESIAN_POINT('',(1.392791853454,2.610450553637));
#688 = CARTESIAN_POINT('',(1.351476322838,2.648388969704));
#689 = CARTESIAN_POINT('',(1.286483803677,2.72230981024));
#690 = CARTESIAN_POINT('',(1.261408492322,2.754845043347));
#691 = CARTESIAN_POINT('',(1.23725573314,2.790071416078));
#692 = CARTESIAN_POINT('',(1.214044789076,2.827723430734));
#693 = CARTESIAN_POINT('',(1.19179682368,2.86756184933));
#694 = CARTESIAN_POINT('',(1.147574824871,2.954517956242));
#695 = CARTESIAN_POINT('',(1.12575103201,3.001988780051));
#696 = CARTESIAN_POINT('',(1.105073139394,3.051560270878));
#697 = CARTESIAN_POINT('',(1.085561830781,3.10304780229));
#698 = CARTESIAN_POINT('',(1.067247302956,3.156304471374));
#699 = CARTESIAN_POINT('',(1.030611350869,3.274102961792));
#700 = CARTESIAN_POINT('',(1.012661244338,3.339204293974));
#701 = CARTESIAN_POINT('',(0.99640839258,3.40627535094));
#702 = CARTESIAN_POINT('',(0.981948742771,3.47510106123));
#703 = CARTESIAN_POINT('',(0.969381964534,3.545497036422));
#704 = CARTESIAN_POINT('',(0.948524952678,3.687161714523));
#705 = CARTESIAN_POINT('',(0.940124896769,3.758372685752));
#706 = CARTESIAN_POINT('',(0.933736466195,3.8305794826));
#707 = CARTESIAN_POINT('',(0.92944467404,3.903454993201));
#708 = CARTESIAN_POINT('',(0.927295218002,3.976694574405));
#709 = CARTESIAN_POINT('',(0.927295218002,4.05));
#710 = ( GEOMETRIC_REPRESENTATION_CONTEXT(2) 
PARAMETRIC_REPRESENTATION_CONTEXT() REPRESENTATION_CONTEXT('2D SPACE',''
  ) );
#711 = PCURVE('',#363,#712);
#712 = DEFINITIONAL_REPRESENTATION('',(#713),#816);
#713 = B_SPLINE_CURVE_WITH_KNOTS('',6,(#714,#715,#716,#717,#718,#719,
    #720,#721,#722,#723,#724,#725,#726,#727,#728,#729,#730,#731,#732,
    #733,#734,#735,#736,#737,#738,#739,#740,#741,#742,#743,#744,#745,
    #746,#747,#748,#749,#750,#751,#752,#753,#754,#755,#756,#757,#758,
    #759,#760,#761,#762,#763,#764,#765,#766,#767,#768,#769,#770,#771,
    #772,#773,#774,#775,#776,#777,#778,#779,#780,#781,#782,#783,#784,
    #785,#786,#787,#788,#789,#790,#791,#792,#793,#794,#795,#796,#797,
    #798,#799,#800,#801,#802,#803,#804,#805,#806,#807,#808,#809,#810,
    #811,#812,#813,#814,#815),.UNSPECIFIED.,.F.,.F.,(7,5,5,5,5,5,5,5,5,5
    ,5,5,5,5,5,5,5,5,5,5,7),(0.,5.013641183858E-02,0.101174016978,
    0.145366544407,0.187481228994,0.249767357093,0.312057092471,
    0.353541590387,0.398336434967,0.449631222706,0.499529099377,
    0.549663299675,0.60069865352,0.662182233742,0.709673554211,
    0.749388509097,0.811890168887,0.853515806889,0.898463054151,
    0.949932358921,1.),.UNSPECIFIED.);
#714 = CARTESIAN_POINT('',(0.,4.112));
#715 = CARTESIAN_POINT('',(4.910174052608E-02,4.112));
#716 = CARTESIAN_POINT('',(9.815855935099E-02,4.108745196051));
#717 = CARTESIAN_POINT('',(0.147182443285,4.102246614338));
#718 = CARTESIAN_POINT('',(0.196178253139,4.092644495168));
#719 = CARTESIAN_POINT('',(0.245134444481,4.080208667938));
#720 = CARTESIAN_POINT('',(0.34374505671,4.050142273921));
#721 = CARTESIAN_POINT('',(0.39341096747,4.032417798839));
#722 = CARTESIAN_POINT('',(0.443107012579,4.012474727658));
#723 = CARTESIAN_POINT('',(0.49292693257,3.990696133433));
#724 = CARTESIAN_POINT('',(0.542953816076,3.967495021939));
#725 = CARTESIAN_POINT('',(0.6368274451,3.922349912545));
#726 = CARTESIAN_POINT('',(0.680628544719,3.900642487247));
#727 = CARTESIAN_POINT('',(0.724762917265,3.878433027107));
#728 = CARTESIAN_POINT('',(0.769318834225,3.855985039795));
#729 = CARTESIAN_POINT('',(0.814385543236,3.833573016348));
#730 = CARTESIAN_POINT('',(0.90358922943,3.790435991167));
#731 = CARTESIAN_POINT('',(0.947693788944,3.769669874762));
#732 = CARTESIAN_POINT('',(0.992427808384,3.749453298078));
#733 = CARTESIAN_POINT('',(1.037844830277,3.730066461276));
#734 = CARTESIAN_POINT('',(1.084003712229,3.71180071909));
#735 = CARTESIAN_POINT('',(1.200439795164,3.670043107599));
#736 = CARTESIAN_POINT('',(1.272151257372,3.648069076303));
#737 = CARTESIAN_POINT('',(1.345451861196,3.630416368557));
#738 = CARTESIAN_POINT('',(1.41989600309,3.618184650695));
#739 = CARTESIAN_POINT('',(1.495123540297,3.612));
#740 = CARTESIAN_POINT('',(1.646473495855,3.612));
#741 = CARTESIAN_POINT('',(1.721699418669,3.618185371623));
#742 = CARTESIAN_POINT('',(1.796139182367,3.630416663655));
#743 = CARTESIAN_POINT('',(1.869435461306,3.648067702597));
#744 = CARTESIAN_POINT('',(1.941145978081,3.670040640093));
#745 = CARTESIAN_POINT('',(2.056888009992,3.711549343236));
#746 = CARTESIAN_POINT('',(2.102371142448,3.729522033994));
#747 = CARTESIAN_POINT('',(2.147133825319,3.748587261128));
#748 = CARTESIAN_POINT('',(2.191231739872,3.768466059892));
#749 = CARTESIAN_POINT('',(2.234715470573,3.788889812987));
#750 = CARTESIAN_POINT('',(2.323979089478,3.831968649635));
#751 = CARTESIAN_POINT('',(2.369692019239,3.854684596262));
#752 = CARTESIAN_POINT('',(2.414876092505,3.877449662363));
#753 = CARTESIAN_POINT('',(2.459624245624,3.899977586801));
#754 = CARTESIAN_POINT('',(2.504028378793,3.921993808951));
#755 = CARTESIAN_POINT('',(2.59875502603,3.967552898994));
#756 = CARTESIAN_POINT('',(2.64903594831,3.990870313072));
#757 = CARTESIAN_POINT('',(2.699108162654,4.012749309893));
#758 = CARTESIAN_POINT('',(2.749055770452,4.032770426976));
#759 = CARTESIAN_POINT('',(2.798973802111,4.050544903505));
#760 = CARTESIAN_POINT('',(2.897609801022,4.080500517109));
#761 = CARTESIAN_POINT('',(2.94633619162,4.092824722345));
#762 = CARTESIAN_POINT('',(2.995102120341,4.102338156109));
#763 = CARTESIAN_POINT('',(3.043896007991,4.108775808328));
#764 = CARTESIAN_POINT('',(3.09272236986,4.112));
#765 = CARTESIAN_POINT('',(3.190694394116,4.112));
#766 = CARTESIAN_POINT('',(3.239751212941,4.108745196051));
#767 = CARTESIAN_POINT('',(3.288775096875,4.102246614338));
#768 = CARTESIAN_POINT('',(3.337770906729,4.092644495168));
#769 = CARTESIAN_POINT('',(3.386727098071,4.080208667938));
#770 = CARTESIAN_POINT('',(3.4853377103,4.050142273921));
#771 = CARTESIAN_POINT('',(3.53500362106,4.032417798839));
#772 = CARTESIAN_POINT('',(3.584699666169,4.012474727658));
#773 = CARTESIAN_POINT('',(3.63451958616,3.990696133433));
#774 = CARTESIAN_POINT('',(3.684546469666,3.967495021939));
#775 = CARTESIAN_POINT('',(3.795467523015,3.914151573522));
#776 = CARTESIAN_POINT('',(3.856543530416,3.883534725043));
#777 = CARTESIAN_POINT('',(3.918333378861,3.852141108077));
#778 = CARTESIAN_POINT('',(3.981075974017,3.820685018791));
#779 = CARTESIAN_POINT('',(4.045014956816,3.789931197483));
#780 = CARTESIAN_POINT('',(4.160927620094,3.73816132409));
#781 = CARTESIAN_POINT('',(4.212390525862,3.716487148672));
#782 = CARTESIAN_POINT('',(4.264787845182,3.696157169543));
#783 = CARTESIAN_POINT('',(4.318125828191,3.677630595869));
#784 = CARTESIAN_POINT('',(4.372431095077,3.661352894481));
#785 = CARTESIAN_POINT('',(4.474012783589,3.636355883845));
#786 = CARTESIAN_POINT('',(4.520975582091,3.626837328454));
#787 = CARTESIAN_POINT('',(4.568448971857,3.61948108646));
#788 = CARTESIAN_POINT('',(4.616272962159,3.61449714894));
#789 = CARTESIAN_POINT('',(4.664302011732,3.612));
#790 = CARTESIAN_POINT('',(4.788066149445,3.612));
#791 = CARTESIAN_POINT('',(4.863292072259,3.618185371623));
#792 = CARTESIAN_POINT('',(4.937731835956,3.630416663655));
#793 = CARTESIAN_POINT('',(5.011028114896,3.648067702597));
#794 = CARTESIAN_POINT('',(5.082738631671,3.670040640093));
#795 = CARTESIAN_POINT('',(5.198480663595,3.711549343241));
#796 = CARTESIAN_POINT('',(5.243963796034,3.729522033994));
#797 = CARTESIAN_POINT('',(5.288726478896,3.748587261122));
#798 = CARTESIAN_POINT('',(5.332824393459,3.76846605989));
#799 = CARTESIAN_POINT('',(5.376308124175,3.788889812993));
#800 = CARTESIAN_POINT('',(5.465571743067,3.831968649635));
#801 = CARTESIAN_POINT('',(5.511284672829,3.854684596262));
#802 = CARTESIAN_POINT('',(5.556468746094,3.877449662363));
#803 = CARTESIAN_POINT('',(5.601216899214,3.899977586801));
#804 = CARTESIAN_POINT('',(5.645621032382,3.921993808951));
#805 = CARTESIAN_POINT('',(5.740347679619,3.967552898994));
#806 = CARTESIAN_POINT('',(5.7906286019,3.990870313072));
#807 = CARTESIAN_POINT('',(5.840700816244,4.012749309893));
#808 = CARTESIAN_POINT('',(5.890648424041,4.032770426976));
#809 = CARTESIAN_POINT('',(5.940566455701,4.050544903505));
#810 = CARTESIAN_POINT('',(6.039202454612,4.080500517109));
#811 = CARTESIAN_POINT('',(6.087928845211,4.092824722345));
#812 = CARTESIAN_POINT('',(6.13669477393,4.102338156109));
#813 = CARTESIAN_POINT('',(6.185488661581,4.108775808328));
#814 = CARTESIAN_POINT('',(6.23431502345,4.112));
#815 = CARTESIAN_POINT('',(6.28318530718,4.112));
#816 = ( GEOMETRIC_REPRESENTATION_CONTEXT(2) 
PARAMETRIC_REPRESENTATION_CONTEXT() REPRESENTATION_CONTEXT('2D SPACE',''
  ) );
#817 = ADVANCED_FACE('',(#818,#849),#217,.F.);
#818 = FACE_BOUND('',#819,.F.);
#819 = EDGE_LOOP('',(#820));
#820 = ORIENTED_EDGE('',*,*,#821,.T.);
#821 = EDGE_CURVE('',#822,#822,#824,.T.);
#822 = VERTEX_POINT('',#823);
#823 = CARTESIAN_POINT('',(7.362,-1.803169947065E-15,3.));
#824 = SURFACE_CURVE('',#825,(#830,#837),.PCURVE_S1.);
#825 = CIRCLE('',#826,7.362);
#826 = AXIS2_PLACEMENT_3D('',#827,#828,#829);
#827 = CARTESIAN_POINT('',(0.,0.,3.));
#828 = DIRECTION('',(0.,0.,1.));
#829 = DIRECTION('',(1.,0.,0.));
#830 = PCURVE('',#217,#831);
#831 = DEFINITIONAL_REPRESENTATION('',(#832),#836);
#832 = CIRCLE('',#833,7.362);
#833 = AXIS2_PLACEMENT_2D('',#834,#835);
#834 = CARTESIAN_POINT('',(0.,0.));
#835 = DIRECTION('',(1.,0.));
#836 = ( GEOMETRIC_REPRESENTATION_CONTEXT(2) 
PARAMETRIC_REPRESENTATION_CONTEXT() REPRESENTATION_CONTEXT('2D SPACE',''
  ) );
#837 = PCURVE('',#838,#843);
#838 = CYLINDRICAL_SURFACE('',#839,7.362);
#839 = AXIS2_PLACEMENT_3D('',#840,#841,#842);
#840 = CARTESIAN_POINT('',(0.,0.,3.));
#841 = DIRECTION('',(0.,0.,1.));
#842 = DIRECTION('',(1.,0.,0.));
#843 = DEFINITIONAL_REPRESENTATION('',(#844),#848);
#844 = LINE('',#845,#846);
#845 = CARTESIAN_POINT('',(0.,0.));
#846 = VECTOR('',#847,1.);
#847 = DIRECTION('',(1.,0.));
#848 = ( GEOMETRIC_REPRESENTATION_CONTEXT(2) 
PARAMETRIC_REPRESENTATION_CONTEXT() REPRESENTATION_CONTEXT('2D SPACE',''
  ) );
#849 = FACE_BOUND('',#850,.F.);
#850 = EDGE_LOOP('',(#851));
#851 = ORIENTED_EDGE('',*,*,#202,.F.);
#852 = ADVANCED_FACE('',(#853),#363,.F.);
#853 = FACE_BOUND('',#854,.F.);
#854 = EDGE_LOOP('',(#855,#856,#877,#878));
#855 = ORIENTED_EDGE('',*,*,#498,.F.);
#856 = ORIENTED_EDGE('',*,*,#857,.F.);
#857 = EDGE_CURVE('',#234,#499,#858,.T.);
#858 = SEAM_CURVE('',#859,(#863,#870),.PCURVE_S1.);
#859 = LINE('',#860,#861);
#860 = CARTESIAN_POINT('',(1.5,6.112,-3.673940397442E-16));
#861 = VECTOR('',#862,1.);
#862 = DIRECTION('',(0.,-1.,0.));
#863 = PCURVE('',#363,#864);
#864 = DEFINITIONAL_REPRESENTATION('',(#865),#869);
#865 = LINE('',#866,#867);
#866 = CARTESIAN_POINT('',(0.,-0.));
#867 = VECTOR('',#868,1.);
#868 = DIRECTION('',(0.,1.));
#869 = ( GEOMETRIC_REPRESENTATION_CONTEXT(2) 
PARAMETRIC_REPRESENTATION_CONTEXT() REPRESENTATION_CONTEXT('2D SPACE',''
  ) );
#870 = PCURVE('',#363,#871);
#871 = DEFINITIONAL_REPRESENTATION('',(#872),#876);
#872 = LINE('',#873,#874);
#873 = CARTESIAN_POINT('',(6.28318530718,-0.));
#874 = VECTOR('',#875,1.);
#875 = DIRECTION('',(0.,1.));
#876 = ( GEOMETRIC_REPRESENTATION_CONTEXT(2) 
PARAMETRIC_REPRESENTATION_CONTEXT() REPRESENTATION_CONTEXT('2D SPACE',''
  ) );
#877 = ORIENTED_EDGE('',*,*,#233,.T.);
#878 = ORIENTED_EDGE('',*,*,#857,.T.);
#879 = ADVANCED_FACE('',(#880,#906),#482,.T.);
#880 = FACE_BOUND('',#881,.T.);
#881 = EDGE_LOOP('',(#882));
#882 = ORIENTED_EDGE('',*,*,#883,.T.);
#883 = EDGE_CURVE('',#884,#884,#886,.T.);
#884 = VERTEX_POINT('',#885);
#885 = CARTESIAN_POINT('',(7.362,-1.803169947065E-15,4.));
#886 = SURFACE_CURVE('',#887,(#892,#899),.PCURVE_S1.);
#887 = CIRCLE('',#888,7.362);
#888 = AXIS2_PLACEMENT_3D('',#889,#890,#891);
#889 = CARTESIAN_POINT('',(0.,0.,4.));
#890 = DIRECTION('',(0.,0.,1.));
#891 = DIRECTION('',(1.,0.,0.));
#892 = PCURVE('',#482,#893);
#893 = DEFINITIONAL_REPRESENTATION('',(#894),#898);
#894 = CIRCLE('',#895,7.362);
#895 = AXIS2_PLACEMENT_2D('',#896,#897);
#896 = CARTESIAN_POINT('',(0.,0.));
#897 = DIRECTION('',(1.,0.));
#898 = ( GEOMETRIC_REPRESENTATION_CONTEXT(2) 
PARAMETRIC_REPRESENTATION_CONTEXT() REPRESENTATION_CONTEXT('2D SPACE',''
  ) );
#899 = PCURVE('',#838,#900);
#900 = DEFINITIONAL_REPRESENTATION('',(#901),#905);
#901 = LINE('',#902,#903);
#902 = CARTESIAN_POINT('',(0.,1.));
#903 = VECTOR('',#904,1.);
#904 = DIRECTION('',(1.,0.));
#905 = ( GEOMETRIC_REPRESENTATION_CONTEXT(2) 
PARAMETRIC_REPRESENTATION_CONTEXT() REPRESENTATION_CONTEXT('2D SPACE',''
  ) );
#906 = FACE_BOUND('',#907,.T.);
#907 = EDGE_LOOP('',(#908));
#908 = ORIENTED_EDGE('',*,*,#467,.F.);
#909 = ADVANCED_FACE('',(#910),#838,.T.);
#910 = FACE_BOUND('',#911,.T.);
#911 = EDGE_LOOP('',(#912,#913,#934,#935));
#912 = ORIENTED_EDGE('',*,*,#883,.F.);
#913 = ORIENTED_EDGE('',*,*,#914,.F.);
#914 = EDGE_CURVE('',#822,#884,#915,.T.);
#915 = SEAM_CURVE('',#916,(#920,#927),.PCURVE_S1.);
#916 = LINE('',#917,#918);
#917 = CARTESIAN_POINT('',(7.362,-1.803169947065E-15,3.));
#918 = VECTOR('',#919,1.);
#919 = DIRECTION('',(0.,0.,1.));
#920 = PCURVE('',#838,#921);
#921 = DEFINITIONAL_REPRESENTATION('',(#922),#926);
#922 = LINE('',#923,#924);
#923 = CARTESIAN_POINT('',(6.28318530718,-0.));
#924 = VECTOR('',#925,1.);
#925 = DIRECTION('',(0.,1.));
#926 = ( GEOMETRIC_REPRESENTATION_CONTEXT(2) 
PARAMETRIC_REPRESENTATION_CONTEXT() REPRESENTATION_CONTEXT('2D SPACE',''
  ) );
#927 = PCURVE('',#838,#928);
#928 = DEFINITIONAL_REPRESENTATION('',(#929),#933);
#929 = LINE('',#930,#931);
#930 = CARTESIAN_POINT('',(0.,-0.));
#931 = VECTOR('',#932,1.);
#932 = DIRECTION('',(0.,1.));
#933 = ( GEOMETRIC_REPRESENTATION_CONTEXT(2) 
PARAMETRIC_REPRESENTATION_CONTEXT() REPRESENTATION_CONTEXT('2D SPACE',''
  ) );
#934 = ORIENTED_EDGE('',*,*,#821,.T.);
#935 = ORIENTED_EDGE('',*,*,#914,.T.);
#936 = ( GEOMETRIC_REPRESENTATION_CONTEXT(3) 
GLOBAL_UNCERTAINTY_ASSIGNED_CONTEXT((#940)) GLOBAL_UNIT_ASSIGNED_CONTEXT
((#937,#938,#939)) REPRESENTATION_CONTEXT('Context #1',
  '3D Context with UNIT and UNCERTAINTY') );
#937 = ( LENGTH_UNIT() NAMED_UNIT(*) SI_UNIT(.MILLI.,.METRE.) );
#938 = ( NAMED_UNIT(*) PLANE_ANGLE_UNIT() SI_UNIT($,.RADIAN.) );
#939 = ( NAMED_UNIT(*) SI_UNIT($,.STERADIAN.) SOLID_ANGLE_UNIT() );
#940 = UNCERTAINTY_MEASURE_WITH_UNIT(LENGTH_MEASURE(1.E-07),#937,
  'distance_accuracy_value','confusion accuracy');
#941 = PRODUCT_RELATED_PRODUCT_CATEGORY('part',$,(#7));
ENDSEC;
END-ISO-10303-21;
